<svg xmlns="http://www.w3.org/2000/svg" viewBox="0 0 394.94 394.93"><defs><style>.cls-1{fill:#e52a18;}.cls-2{fill:#fff;}</style></defs><g id="Ebene_2" data-name="Ebene 2"><g id="Capa_1" data-name="Capa 1"><path class="cls-1" d="M5.83,150C32,44.17,139.06-20.37,244.9,5.83S415.3,139,389.11,244.89,255.89,415.3,150,389.1-20.38,255.88,5.83,150"/><path class="cls-2" d="M177.1,276.66a83.16,83.16,0,1,1,58.66-142.08,102.93,102.93,0,1,0,0,117.84,82.9,82.9,0,0,1-58.66,24.24"/><polygon class="cls-2" points="276.79 149.35 296 177.05 328.31 167.35 307.87 194.21 327.07 221.94 295.24 210.79 274.8 237.62 275.56 203.88 243.72 192.73 276.04 183.08 276.79 149.35"/></g></g></svg>