<svg xmlns="http://www.w3.org/2000/svg" viewBox="0 0 394.94 394.93"><defs><style>.cls-1{fill:#56af31;}.cls-2{fill:#fff;}</style></defs><g id="Ebene_2" data-name="Ebene 2"><g id="Capa_1" data-name="Capa 1"><path class="cls-1" d="M5.83,150C32,44.17,139.06-20.36,244.9,5.83S415.3,139,389.11,244.89,255.89,415.3,150,389.1-20.38,255.88,5.83,150"/><path class="cls-2" d="M56.24,126.74l-.09.24-.84,2.67a23.55,23.55,0,0,0,3.36-7.83l-1.14-5-3.18,1-1.59,3.12,3.87-.54Zm-3.63,33.75,3.06-2.67c1.77-2.88,2.37-6.27,2.82-9.57l.54-3.72.15-.18,2.43-8,.6-.15.24,3.57-.72,6.18c-.15,4.29.36,9,3.09,12.51A9.85,9.85,0,0,0,73,161.87c.45,5.37,1.26,10.74,1.77,16.08l.12.21.51,5.55.6,7.14h.57l2-5.73c.27-5.19-.54-10.35-.69-15.54-.18-3.54-.54-7.08-.75-10.65l3.27-3.81,1.74-2.85.66-.06,2.13,5.07,7.41,2.22,6-4.05c1.86-2.7,1.65-6.12,1.41-9.24A105.24,105.24,0,0,0,97,134.48l2-.81L99,131.18l-1.92-3-3.39-3.33-2.58,2.61L89.72,130l1.65,4.86a60.2,60.2,0,0,1,3.69,14l-1.5,2.76-5.55-1-2.52-4.26c-.9-3.75-2.07-7.59-1.62-11.49a10.62,10.62,0,0,0-3.63-10l-1.11.66a14.35,14.35,0,0,0-.51,8.76c.81,3.66,1.53,7.35,2.19,11.07l-4.14,7-.3-2.43L76,146.93c-.51-5.1-1.11-10.23-1.44-15.36l2-2.22c0-3-1.53-5.76-2.88-8.4l-2.55-3-2.76,4.14,1.08,3.9c-.3,2.88,1.08,5.52,1.38,8.34s.36,6,.72,9c.15,3.24.48,6.48.78,9.75l-2.88-.84-3.24-5-.54-2-.3-5.49L67,132.92l.27-4.65-2.61-2L61,129.23a29.84,29.84,0,0,0-3.87,8.28l-.06.18c-1.29,4.5-.78,9.42-2.58,13.8l-2,1.74L49.85,150a40.63,40.63,0,0,1-2.16-11.25l-.24-8-.78,0a24.18,24.18,0,0,0-1.5,8.4l-.18.21a41.76,41.76,0,0,0,3.84,18.39Zm80.16-17.64-3.12,3.81-1.53,5.79,2.73,3.36,3.84-.9,3.3-5.73-3.06,2.4-3.24.78-1-2.85,2.88-6.6Zm4.08-20.46-.63,4.2-.57-.12-.36-2.1Zm.24,10.44,2.43-.9-.36-2.64,1.74-5.22-.81-4.92-4.56-.69-3.42,3.93c-.9,2.85-.69,6.27,1.74,8.31a53,53,0,0,1-12.72,12l-4.08,3-.06.78,5.28-1.59c5.76-2.82,11.28-6.6,14.82-12.06m-49.53-9.72,1.59,1.68,1.8.09,1.62-2.43-.78-2.82-2.07,3-1.44-4.35-.51,0-2.37,4-1.56-.39-.48-3.36-.39-1-.48-.12-1,4.11,2.73,3.3ZM64.13,173.24l5.22-1.83,0-3.81-1.44.06a42.49,42.49,0,0,0-10,4.5c-4.17,2.73-8.13,6-10.83,10.17l4.44-2.88a89.28,89.28,0,0,1,12.6-6.21m-12.87,38c-1-3.54-.12-7.32,1-10.68l.42-7.5-.69.06-2.16,6.72a23,23,0,0,0-1.68,9.39l.63,7,3.84,3.09,4.53-4,.12-5.4L54,213.29Zm299.63-54c-.81-8.43-2.43-16.8-2.07-25.32l2.58,1.14-.48-3.27c-1.59-3.45-3.18-6.9-4.68-10.44L344.68,117,343,118.19l-2.4,3.93.51,4.71c.33,3.66,1.11,7.41,1.35,11.07l.51,4.8.66,5.85c1.29,11.37,2.55,22.77,3.33,34.2.3,5.61.42,11.4-1.59,16.77a28,28,0,0,1-8.55,11.7c-2.88,2.55-6.18,4.53-9.24,6.81l-2.52,2.73,6.87-.87c5.13-1.26,10.08-3.84,13.41-8a30.48,30.48,0,0,0,6.09-13.83l.12-.15a74.73,74.73,0,0,0,1.11-14.16c-.18-8.82-.84-17.67-1.77-26.49m-35.31,9.27c-.06-2.82-.48-5.67-.48-8.52,3.36,4.83,6.84,9.6,10.2,14.4l.81,2.82c.51,3.36.93,6.72,1.29,10.14.33,4,.12,8,.06,12.06l.9,2,1.65-5.16.36-6.24c-.3-3.21-.21-6.48-.54-9.66,3.66,4.86,7.2,9.81,10.53,14.94l3.21,5.31.57,0-.39-7.65c-1.59-5.52-5.31-10-8.43-14.7-2.07-3.15-4.32-6.15-6.3-9.39-.42-3.69-.69-7.41-1-11.1-.51-5.34-1.41-16.29-1.41-16.29l-.12-4.8,1.14.63.87-.33.12-2.79c-.93-3.33-1.74-6.72-2.67-10L323.8,117l-1.74.81-2.76,4.8.3,3.75c.18,6.78,1,13.53,1.8,20.28.6,4.14,1.38,8.25,1.92,12.39-3-4.26-6.12-8.46-9.12-12.66-.12-4.47-.63-8.88-.81-13.35l2,.75-.21-2c-1.35-4.29-2.91-8.46-4.53-12.66l-1.53-1.32-3.27,5.67,1,5.13c.12,2.76.66,5.55.78,8.34l-4.77-6.81h1.65l.57-.78-.81-1.65c-2.55-2.64-5.58-4.74-7.8-7.65l-3.18-1.35-.18,1.44-.18,6.54,2.91,6.09c4.35,5.28,8.43,10.83,12.75,16.17l.54,5.52c.12,2.73.48,5.43.54,8.22l.15.18c.57,9.84,1.56,19.62,1,29.46L309,197.75l-3.57,2.1L301,198l-5.67-6.66-3.24-.06-3.72,5.16a142.26,142.26,0,0,0-7,13.2l-2.55,3.6-3.06-.06-2.31-3.84,2.64,1.08,3.66-2.76a29.84,29.84,0,0,0,3.54-11.16c.63-5.7-.72-11.34-1.71-16.92-.27-3.6-.9-7.2-1.17-10.86l-.12-.18c-.6-5.58-1.32-11.1-2-16.68-.36-4.2-1-8.37-1.2-12.57l4.26-1.83-.75-4.86a41.61,41.61,0,0,1-4.29-9.66l-2.1-5.82-3-2-3.33,1.65-3.48,6.84c-.63,3.36.18,6.72,1,10a62.51,62.51,0,0,1,1.47,9.15c1.08,7.8,2,15.63,3.09,23.43.6,5,1.26,10,1.95,15,.72,7.08,2.52,14.16,1.65,21.3l-1,4.44-.84-6.42-.36-7.65-.57-.09-1.8,6.45c-.84,4.47-1.89,9.21-.54,13.65.87,3,3.57,4.8,5.82,6.72l4.11,2,2.76-1.77A58.58,58.58,0,0,0,287.92,208l4.05-7,1.77-1L297,204a13.57,13.57,0,0,0,9.48,4.11c3.09.09,5.88-1.86,7.62-4.35,2.49-3.69,2.76-8.25,2.91-12.57l-.15-.18c-.27-8.16-.78-16.32-1.26-24.48m-2.43,49.65,1.62-4.68-.36-.81-5.31-.42-.9,2.61,2.46,2.28L307.18,220l2.46,1.26,6.51-3.12,0-1.86ZM90.41,176.75,90,172l.75-.39,2.64,1.14,2.58,3Zm13.11,35.13a21.91,21.91,0,0,0,6.6-10.65c1.5-5.4,1.53-11.16,1.11-16.74l-.27-7.17.27-1.56.69,0,4.92,3.54,6.39-1.62,2.49-2.4.93-.18,2.13,2.28,5.67.93,3.08-2.67.94-7.59-.94-4.83-3.08,2,.24,1.62.36,3.9-2.19,3-3.21-2.1L128,164.42l-.69-.09-3.18,7.2-4.35,3-3-2-.69-6.39-1.53-1.29-4.26,3.54c-.3-4.77-.6-9.54-1-14.28-.27-5.73-.9-11.43-1.2-17.16l1.92,1,1.38-1.17-.3-3.93c-1.29-3-2.25-6.12-3.36-9.15l-1.92-4.86-2.7,1.89L100.79,124l.87,3.63L101.6,130l.6,7.8.24,2.37.15.21.84,7.62.12.18c.81,7.74,1.89,15.45,2.13,23.22l-4.17,2.34-5.64-7.11-4.8-1.92L86.93,168l-2.58,6.36.12,6.93,1.17,1.8,5.94,1,6.87-2.19-.36,4.65-1.65,2.31L89,195.41a23.36,23.36,0,0,1-9.33,4.14l-6.57-2c-3.21-3.6-4-8.76-3.6-13.44l.24-4.56-1.83,3.24a34.45,34.45,0,0,0-1.23,8.58c-.06,3,0,6.09,1.32,8.88,1.74,3.39,4.86,6.36,8.73,6.87,4.8.66,9.36-1.5,13.41-3.72,5.34-3,10.44-7.38,12.33-13.44l.12-.21c.84-3.12.42-6.39.36-9.6l3.24-1.83c.12,3.57-.09,7.17,0,10.71l-.69,7.56-.09.21a14.71,14.71,0,0,1-5.58,7.77A39.82,39.82,0,0,1,85.55,212a28.44,28.44,0,0,1-9.15,1.38,11.69,11.69,0,0,1-9-3.69c-2.67-3-3.39-7.08-3.84-10.89v-5.76l.15-8.4c-2.31,4.08-2.94,8.85-3.39,13.44A33.71,33.71,0,0,0,63,214.31l3.27,4.14c2.7,2,6.18,2.7,9.54,2.76a47.63,47.63,0,0,0,16.8-3.36c3.87-1.5,7.86-3.12,11-6m49.56-56.31,3.95-3.21c1.63-3.75,2.89-7.68,4.18-11.55l2.07-4.2.63.15.12,2.52a33.21,33.21,0,0,0,.3,11.55l4.26,6.66,8.07.3a19.65,19.65,0,0,0,9.75-8.79c2.28,2.88,5,5.91,8.79,6.72l7-3.39a19.07,19.07,0,0,0,2.54-11.94,63.77,63.77,0,0,0-1.61-8.64l-1.32-4.14,2.78,1.71,1.77.12-.27-2.79-4.46-7.35-3.25-1.65-1.56,2.79-2.15,3.63,2.19,5.52a66.34,66.34,0,0,1,2.58,10l-.27,7.89-3.27,2.13-3.84-2.88a28.48,28.48,0,0,1-3.81-11.25,78.09,78.09,0,0,0-1-11.46,23.23,23.23,0,0,0-2.76-8.31h-.78l-2.46,4.86.57,4.38c1,4.74,2,9.57,1.86,14.43l-1.89,7.17L176,150.92l-5.49.06-2.61-5.37a84.81,84.81,0,0,1,.57-15.12l.39-4.8-1.56-2.1-2.52,1.08a53,53,0,0,0-5.31,8.64,87.26,87.26,0,0,0-5.46,13l-2.94,2.34-3.93-5.28L146.6,141a37.41,37.41,0,0,1-.42-9.69l.87-5.79-.57,0a31.29,31.29,0,0,0-2.85,10.29,21.94,21.94,0,0,0,4.62,16.23ZM304,316.12a49,49,0,0,1-6,.21c-1.21,0-2.41,0-3.62,0l-2.52-1.86L290,315.55l-.12.93c-3.18.3-6.36.21-9.51.27l-1.83-2.37,0-2.76q12.87-.36,25.8-.75Zm1.17-12.84c-8.91,0-17.79.3-26.7.42l.06-2.79,1.62-3.63-2.4-3.75-1.38,0L274,297.35l1.89,4,.06,2.29c-32.79.41-65.57.41-98.36.26-3.43,0-6.84,0-10.26-.05-2.79,0-5.57-.08-8.37-.07-16.62-.06-33.24-.27-49.89-.44-4.18,0-8.34-.06-12.51-.14s-8.36-.15-12.54-.13a17.73,17.73,0,0,0,9.15,6.86c6,2.17,12.48,2.7,18.84,3.06,6.84.39,13.71.12,20.55.39,21.78.21,43.56.09,65.28-.2,19.88-.19,39.77-.61,59.69-1.06,6.24-.15,12.48-.36,18.72-.36v2.67l-1.92,2.79,3,5h.6l2.07-3c3.24,0,6.48-.27,9.72-.21l2.43,1.92,2.31-2.19c3.48-.06,7-.09,10.41-.09l2.61,2.16,4.74-1.23,2.07-7.65L312,305.17Zm-4.53-137.75c-3.63,3.48-8.07,6.09-11.79,9.48l-.9,2.55,3.6-1.83a69.42,69.42,0,0,1,9.33-6.12l3.39-2.16-.18-4.23Zm-57.36-37.92.09,7.59,2-2.37c1.65-4,.67-8.52-1.25-12.24l-2.91-2.37-1.75,4.23,1.41,1.65Zm1.83,13.17-1.2,3.84-1,.51-1.26-3L241,142l.75,5.76,3.66-1.74,2.55,1.59,2.07-.69.39-1-.39-6.12-.66.15-.45,1-1.95,3.9-1.44-3.6Zm10.5,3.48c.9,7.5,1.68,15.06,2.22,22.59s.76,15,1.26,22.5a61.35,61.35,0,0,1,.24,8.79,18,18,0,0,1-5.16,11c-3.6,3.93-7.53,7.74-12.33,10.2l-7.65,3.06v.69l5.41.3c3.23-.3,6.65-.36,9.53-2,3.6-2.1,6.06-5.49,8.76-8.58,3.48-3.84,4.92-9,5.49-14.07a91.24,91.24,0,0,0,.3-15c-.15-8-.75-16.11-1.65-24.12-.84-8.43-2.09-16.89-1.71-25.38l2.61.72-.21-2.52-2-7.08-.51-2.07-.09-.21-1.52-4.26-1.48.54-3.66,3.9-.6,4.08.81,2.22c.69,4.89,1.32,9.78,2,14.67m31.86,8.79,1.2-1.14,3.93,6.48,1.44,2.4,1.23-1.86c.15-3.24-.06-6.51,0-9.78l1.05-2,3.12.66-.06-2L298,143l-1-.48-3.42,3.78.27,6.54-.33,3-2-4-3.3-5.49-1.74.42-.6,2v3l.33,1.14Zm-111.77-23.7.09,6.69h.6l.93-3.45c.27-3.48.36-7.08-.73-10.41L174.65,119l-2,1.44.48,2.46Zm129,54.84c.87-3.21-.45-6.6-2.61-9l-2.19-.63-1.77,3.18,4,3.93,0,5.37Zm-96.14-56.94,3.59,3.06c5.1,6.78,10.3,13.53,14.82,20.67.48,2.88.81,5.82,1.17,8.73l.13.18.62,4.59c1.23,10,2.7,20,3.36,30.09.06,4.32.48,8.79-.84,13l-.36,4.5,2-2.13c2.7-6.3,3.27-13.26,3.12-20l-.18-.21c0-6.39-1.41-12.66-1.74-19-.15-3.24-.54-6.45-.66-9.72,6.42,10.2,13.08,20.34,18.24,31.23l3.42,7.23.84-.15c.12-4.26-1.29-8.43-2.85-12.36a154.2,154.2,0,0,0-9.75-18.69q-4.91-8.28-10.14-16.29l-.75-4.71c-.27-3.36-.27-6.69-.33-10l2.16.81.46-.84-.88-4.44c-1.26-3.9-3-7.62-4.62-11.46l-1.77-1.92-2.19,1.83-1.29,4.17,1.29,3.63c-.05,4.17.94,8.28,1.23,12.45l-.29-.69c-2.43-3.27-4.65-6.69-6.93-10.05l3.84.09L221.27,127c-3.12-3.33-6.64-6.21-10-9.24l-2.7-.75-.45.78.3,5.61ZM185,168.59h.75L188,170l3-2.76-1.4-6.72-.51,4.74-.63,2-.84.06-1.74-2.91-1.5-2.13-.51,3.9-.63,1.83-1.17,0-1.8-4.89-.45-.72.59,7.74,2.67,1.17Zm-60.51,29.58.84-.3,2.22-5.16-.21-5.7-4.71-1-.24,4,3,.45-.15,4.41ZM203,167l5.47,2.46,1.74,1.29-7,1.92-.68-4.92Zm23,19.95-5.76.12c-7.83.42-15.65.57-23.48.57h-2.57c-2.36,0-4.71,0-7.07-.17a117.77,117.77,0,0,1,16-6.75l3.27.42-.07-1.44c2.92-1.14,6-2.28,8.25-4.56l3-6.69-4.16-6.21c-2.76-1.77-5.8-3.6-9.16-3.48l-4.65,2.43-3.6,7.26,1.75,5.94c-4.62,1.38-9.15,3.09-13.65,4.77L177.83,182l-3.24,5.4-.75,4.32,3,.87c3.09.21,6.14.09,9.2.39s5.92.69,8.35,2.34l1.05,1c-3.85,1.5-7.71,4-9.27,8L186,211.1c-4.25-1.17-8.63-3.39-10.88-7.35-2.67-4.68-2.91-10.17-3.81-15.33-.48-3.42-1.29-6.75-1.92-10.11v.48c-1.44-6.3-4.08-12.3-6.72-18.18l-1.8-3.51-2.55,4.2-.69,5.52q2.79,7.6,5.15,15.39l.13.21,1.86,6.33.09.18,1.41,5.25a54.07,54.07,0,0,1-10.8,14.49c-3.3,3-7,5.79-11.52,6.54l-6.24-1.08-1.44-4.86a48.21,48.21,0,0,0,12.24-9.48,23.29,23.29,0,0,0,6.56-10.08,23.4,23.4,0,0,0,0-9.54l-.68-2.58-1.86-5.34,2-.42-2-4.77-4-4.56-2.19-.12L144.44,166l-.93,3.87L146,172c1.26,3,2.88,5.76,4.26,8.67l1,5.46-3.72,5.79a114.69,114.69,0,0,1-9.87,8v-4l-.07-5.37h-.62a50.85,50.85,0,0,0-4.11,9.57l-1.11,4-.66.75a191.93,191.93,0,0,1-18.15,11L105,220l-.15.9,2,.12a171.73,171.73,0,0,0,24.54-8.76c.39,2.94,1.08,6.12,3.27,8.28,2.4,2.61,6.3,3,9.63,2.61,5.49-.81,10.05-4.29,14-8a82.32,82.32,0,0,0,10.23-12.36,28.49,28.49,0,0,0,7.65,11.43c5.57,5,13.08,7.23,20.4,8l4.23-1.26,1.2-5.52-4.8-1.95-5.79-4.05.05-4.2,6.12-3.36A135.29,135.29,0,0,1,217.72,196l5.76-1.5,2.31-4.65Zm109.11-48.84.51,4.8h.63l1.23-6.78c-.18-4.26-.87-8.7-3.36-12.3l-2.49,2.58.39,2.7a22.19,22.19,0,0,1,3.09,9M214.7,220.64c3.35.06,6-2.4,8.54-4.26l2.4-2.64-1.85.21c-2.89,1-5.47,3-8.58,3.3l-.64-1.17,1-6.72-5.09,2.1L208,213.71l4.13-.9-.59,6.3Z"/></g></g></svg>