<svg xmlns="http://www.w3.org/2000/svg" viewBox="0 0 394.3 394.92"><defs><style>.cls-1{fill:#ffe143;}.cls-2{fill:#424241;}.cls-3{fill:#e52a18;}.cls-4{fill:#009b3e;}.cls-5{fill:#fff;}.cls-6{fill:#0069b4;}</style></defs><g id="Ebene_2" data-name="Ebene 2"><g id="Capa_1" data-name="Capa 1"><polygon class="cls-1" points="169.72 124.16 192.32 124.16 193.19 125.12 192.32 126.09 169.72 126.09 168.85 125.12 169.72 124.16"/><polygon class="cls-2" points="169.72 124.16 169.72 124.51 192.15 124.51 192.72 125.12 192.15 125.74 169.85 125.74 169.33 125.12 169.98 124.39 169.72 124.16 169.72 124.51 169.72 124.16 169.46 123.95 168.59 124.91 168.37 125.12 169.46 126.3 169.54 126.44 192.32 126.44 192.45 126.44 193.46 125.35 193.67 125.12 192.59 123.95 192.45 123.81 169.72 123.81 169.54 123.81 169.46 123.95 169.72 124.16"/><polygon class="cls-1" points="170.25 126.09 191.84 126.09 192.67 127.05 191.84 128.05 170.25 128.05 169.41 127.05 170.25 126.09"/><polygon class="cls-2" points="170.25 126.09 170.25 126.44 191.67 126.44 192.19 127.05 191.67 127.7 170.42 127.7 169.85 127.05 170.51 126.3 170.25 126.09 170.25 126.44 170.25 126.09 169.98 125.86 169.15 126.83 168.98 127.05 169.98 128.27 170.07 128.4 191.84 128.4 192.02 128.4 192.93 127.26 193.11 127.05 192.1 125.86 192.02 125.74 170.25 125.74 170.07 125.74 169.98 125.86 170.25 126.09"/><polygon class="cls-1" points="183.77 114.92 184.16 124.17 178.19 124.12 178.58 114.92 183.77 114.92"/><polygon class="cls-2" points="183.42 114.92 183.82 123.81 178.53 123.77 178.92 115.27 183.77 115.27 183.77 114.57 178.58 114.57 178.23 114.57 177.84 124.12 177.84 124.47 184.16 124.51 184.51 124.51 184.12 114.92 183.42 114.92"/><polygon class="cls-1" points="177.44 111.43 179.06 111.43 179.06 112.64 180.28 112.64 180.28 111.43 182.03 111.43 182.03 112.64 183.25 112.64 183.25 111.43 184.95 111.43 184.95 114.22 184.21 114.92 178.19 114.92 177.44 114.22 177.4 111.43 177.44 111.43"/><polygon class="cls-2" points="177.44 111.43 177.44 111.78 178.71 111.78 178.71 112.64 178.71 113 180.28 113 180.63 113 180.63 111.78 181.68 111.78 181.68 112.64 181.68 113 183.25 113 183.6 113 183.6 111.78 184.6 111.78 184.6 114.09 184.07 114.57 178.19 114.57 177.79 114.09 177.75 111.43 177.4 111.43 177.4 111.78 177.44 111.78 177.44 111.43 177.44 111.08 177.4 111.08 177.05 111.08 177.09 114.22 177.09 114.35 177.97 115.18 178.05 115.27 184.21 115.27 185.16 114.48 185.3 114.35 185.3 111.43 185.3 111.08 183.25 111.08 182.9 111.08 182.9 112.3 182.37 112.3 182.37 111.43 182.37 111.08 180.28 111.08 179.93 111.08 179.93 112.3 179.41 112.3 179.41 111.43 179.41 111.08 177.44 111.08 177.44 111.43"/><rect class="cls-2" x="180.54" y="118.8" width="1.22" height="2.14"/><polygon class="cls-1" points="184.73 115.79 186.38 115.79 186.38 117.01 187.61 117.01 187.61 115.79 189.35 115.79 189.35 117.01 190.58 117.01 190.58 115.79 192.28 115.79 192.28 118.58 191.54 119.28 185.52 119.28 184.73 118.58 184.73 115.79"/><polygon class="cls-2" points="184.73 115.79 184.73 116.14 186.04 116.14 186.04 117.01 186.04 117.36 187.61 117.36 187.96 117.36 187.96 116.14 189 116.14 189 117.01 189 117.36 190.58 117.36 190.93 117.36 190.93 116.14 191.93 116.14 191.93 118.45 191.41 118.93 185.52 118.93 185.08 118.45 185.08 115.79 184.73 115.79 184.73 116.14 184.73 115.79 184.38 115.79 184.38 118.58 184.38 118.71 185.3 119.54 191.54 119.63 192.5 118.84 192.63 118.71 192.63 115.79 192.63 115.44 190.58 115.44 190.23 115.44 190.23 116.66 189.71 116.66 189.71 115.79 189.71 115.44 187.61 115.44 187.26 115.44 187.26 116.66 186.74 116.66 186.74 115.79 186.74 115.44 184.73 115.44 184.38 115.44 184.38 115.79 184.73 115.79"/><polygon class="cls-1" points="191.19 119.28 191.36 124.16 185.65 124.16 185.82 119.28 191.19 119.28"/><polygon class="cls-2" points="190.84 119.28 191.01 123.81 185.99 123.81 186.17 119.63 191.19 119.63 191.19 118.93 185.82 118.93 185.47 118.93 185.3 124.16 185.3 124.51 191.36 124.51 191.71 124.51 191.54 119.28 190.84 119.28"/><polygon class="cls-1" points="169.98 115.79 171.64 115.79 171.64 117.01 172.86 117.01 172.86 115.79 174.61 115.79 174.61 117.01 175.83 117.01 175.83 115.79 177.53 115.79 177.53 118.58 176.79 119.28 170.77 119.28 169.98 118.58 169.98 115.79"/><polygon class="cls-2" points="169.98 115.79 169.98 116.14 171.29 116.14 171.29 117.01 171.29 117.36 172.86 117.36 173.21 117.36 173.21 116.14 174.26 116.14 174.26 117.01 174.26 117.36 175.83 117.36 176.18 117.36 176.18 116.14 177.18 116.14 177.18 118.45 176.66 118.93 170.77 118.93 170.33 118.45 170.33 115.79 169.98 115.79 169.98 116.14 169.98 115.79 169.63 115.79 169.63 118.58 169.63 118.71 170.55 119.54 176.79 119.63 177.75 118.84 177.88 118.71 177.88 115.79 177.88 115.44 175.83 115.44 175.48 115.44 175.48 116.66 174.96 116.66 174.96 115.79 174.96 115.44 172.86 115.44 172.51 115.44 172.51 116.66 171.99 116.66 171.99 115.79 171.99 115.44 169.98 115.44 169.63 115.44 169.63 115.79 169.98 115.79"/><polygon class="cls-1" points="176.44 119.28 176.61 124.16 170.9 124.16 171.07 119.28 176.44 119.28"/><polygon class="cls-2" points="176.09 119.28 176.27 123.81 171.25 123.81 171.42 119.63 176.44 119.63 176.44 118.93 171.07 118.93 170.72 118.93 170.55 124.16 170.55 124.51 176.61 124.51 176.96 124.51 176.79 119.28 176.09 119.28"/><rect class="cls-2" x="187.87" y="121.37" width="1.22" height="1.31"/><rect class="cls-2" x="173.17" y="121.37" width="1.18" height="1.31"/><polygon class="cls-1" points="232.81 124.16 255.37 124.16 256.25 125.13 255.37 126.09 232.81 126.09 231.94 125.13 232.81 124.16"/><polygon class="cls-2" points="232.81 124.16 232.81 124.52 255.2 124.52 255.76 125.13 255.2 125.74 232.94 125.74 232.42 125.13 233.08 124.39 232.81 124.16 232.81 124.52 232.81 124.16 232.55 123.95 231.68 124.91 231.46 125.13 232.55 126.3 232.64 126.44 255.37 126.44 255.54 126.44 256.5 125.35 256.72 125.13 255.63 123.95 255.5 123.81 232.81 123.81 232.64 123.81 232.55 123.95 232.81 124.16"/><polygon class="cls-1" points="233.25 126.09 254.89 126.09 255.68 127.05 254.89 128.05 233.25 128.05 232.46 127.05 233.25 126.09"/><polygon class="cls-2" points="233.25 126.09 233.25 126.44 254.72 126.44 255.24 127.05 254.72 127.7 233.43 127.7 232.9 127.05 233.51 126.3 233.25 126.09 233.25 126.44 233.25 126.09 232.99 125.86 232.2 126.83 232.03 127.05 232.99 128.27 233.08 128.4 254.89 128.4 255.07 128.4 255.94 127.26 256.11 127.05 255.15 125.86 255.07 125.74 233.25 125.74 233.08 125.74 232.99 125.86 233.25 126.09"/><polygon class="cls-1" points="246.82 114.92 247.21 124.17 241.19 124.12 241.63 114.92 246.82 114.92"/><polygon class="cls-2" points="246.47 114.92 246.86 123.81 241.54 123.77 241.98 115.27 246.82 115.27 246.82 114.57 241.63 114.57 241.28 114.57 240.84 124.12 240.8 124.47 247.21 124.51 247.56 124.51 247.17 114.92 246.47 114.92"/><polygon class="cls-1" points="240.49 111.43 242.15 111.43 242.15 112.64 243.37 112.64 243.37 111.43 245.03 111.43 245.03 112.64 246.3 112.64 246.3 111.43 248 111.43 248 114.22 247.25 114.92 241.23 114.92 240.49 114.22 240.49 111.43"/><polygon class="cls-2" points="240.49 111.43 240.49 111.78 241.8 111.78 241.8 112.64 241.8 113 243.37 113 243.72 113 243.72 111.78 244.68 111.78 244.68 112.64 244.68 113 246.3 113 246.65 113 246.65 111.78 247.65 111.78 247.65 114.09 247.12 114.57 241.23 114.57 240.84 114.09 240.84 111.43 240.49 111.43 240.49 111.78 240.49 111.43 240.14 111.43 240.14 114.22 240.14 114.35 240.97 115.18 241.11 115.27 247.25 115.27 248.21 114.48 248.35 114.35 248.35 111.43 248.35 111.08 246.3 111.08 245.95 111.08 245.95 112.3 245.38 112.3 245.38 111.43 245.38 111.08 243.37 111.08 243.02 111.08 243.02 112.3 242.5 112.3 242.5 111.43 242.5 111.08 240.49 111.08 240.14 111.08 240.14 111.43 240.49 111.43"/><rect class="cls-2" x="243.59" y="118.8" width="1.22" height="2.14"/><polygon class="cls-1" points="247.78 115.79 249.48 115.79 249.48 117.01 250.7 117.01 250.7 115.79 252.36 115.79 252.36 117.01 253.58 117.01 253.58 115.79 255.33 115.79 255.33 118.58 254.59 119.28 248.57 119.28 247.78 118.58 247.78 115.79"/><polygon class="cls-2" points="247.78 115.79 247.78 116.14 249.13 116.14 249.13 117.01 249.13 117.36 250.7 117.36 251.05 117.36 251.05 116.14 252.01 116.14 252.01 117.01 252.01 117.36 253.58 117.36 253.93 117.36 253.93 116.14 254.98 116.14 254.98 118.45 254.46 118.93 248.57 118.93 248.13 118.45 248.13 115.79 247.78 115.79 247.78 116.14 247.78 115.79 247.43 115.79 247.43 118.58 247.43 118.71 248.35 119.54 254.59 119.63 255.55 118.84 255.68 118.71 255.68 115.79 255.68 115.44 253.58 115.44 253.23 115.44 253.23 116.66 252.71 116.66 252.71 115.79 252.71 115.44 250.7 115.44 250.35 115.44 250.35 116.66 249.83 116.66 249.83 115.79 249.83 115.44 247.78 115.44 247.43 115.44 247.43 115.79 247.78 115.79"/><polygon class="cls-1" points="254.28 119.28 254.41 124.16 248.7 124.16 248.87 119.28 254.28 119.28"/><polygon class="cls-2" points="253.93 119.28 254.06 123.81 249.04 123.81 249.22 119.63 254.28 119.63 254.28 118.93 248.87 118.93 248.52 118.93 248.35 124.16 248.35 124.52 254.41 124.52 254.76 124.52 254.63 119.28 253.93 119.28"/><polygon class="cls-1" points="233.03 115.79 234.69 115.79 234.69 117.01 235.95 117.01 235.95 115.79 237.61 115.79 237.61 117.01 238.83 117.01 238.83 115.79 240.58 115.79 240.58 118.58 239.84 119.28 233.81 119.28 233.03 118.58 233.03 115.79"/><polygon class="cls-2" points="233.03 115.79 233.03 116.14 234.34 116.14 234.34 117.01 234.34 117.36 235.95 117.36 236.31 117.36 236.31 116.14 237.27 116.14 237.27 117.01 237.27 117.36 238.83 117.36 239.19 117.36 239.19 116.14 240.23 116.14 240.23 118.45 239.71 118.93 233.81 118.93 233.38 118.45 233.38 115.79 233.03 115.79 233.03 116.14 233.03 115.79 232.68 115.79 232.68 118.58 232.68 118.71 233.6 119.54 239.84 119.63 240.8 118.84 240.93 118.71 240.93 115.79 240.93 115.44 238.83 115.44 238.49 115.44 238.49 116.66 237.96 116.66 237.96 115.79 237.96 115.44 235.95 115.44 235.6 115.44 235.6 116.66 235.04 116.66 235.04 115.79 235.04 115.44 233.03 115.44 232.68 115.44 232.68 115.79 233.03 115.79"/><polygon class="cls-1" points="239.49 119.28 239.66 124.16 233.95 124.16 234.12 119.28 239.49 119.28"/><polygon class="cls-2" points="239.14 119.28 239.31 123.81 234.3 123.81 234.47 119.63 239.49 119.63 239.49 118.93 234.12 118.93 233.77 118.93 233.6 124.16 233.6 124.52 239.66 124.52 240.01 124.52 239.84 119.28 239.14 119.28"/><rect class="cls-2" x="250.96" y="121.37" width="1.22" height="1.31"/><rect class="cls-2" x="236.22" y="121.37" width="1.18" height="1.31"/><polygon class="cls-1" points="106.71 124.16 129.27 124.16 130.15 125.12 129.27 126.09 106.71 126.09 105.84 125.12 106.71 124.16"/><polygon class="cls-2" points="106.71 124.16 106.71 124.51 129.09 124.51 129.67 125.12 129.09 125.74 106.84 125.74 106.32 125.12 106.97 124.39 106.71 124.16 106.71 124.51 106.71 124.16 106.45 123.95 105.58 124.91 105.36 125.12 106.45 126.3 106.54 126.44 129.27 126.44 129.45 126.44 130.41 125.35 130.63 125.12 129.53 123.95 129.4 123.81 106.71 123.81 106.54 123.81 106.45 123.95 106.71 124.16"/><polygon class="cls-1" points="107.19 126.09 128.79 126.09 129.62 127.05 128.79 128.05 107.19 128.05 106.36 127.05 107.19 126.09"/><polygon class="cls-2" points="107.19 126.09 107.19 126.44 128.62 126.44 129.19 127.05 128.62 127.7 107.37 127.7 106.8 127.05 107.46 126.3 107.19 126.09 107.19 126.44 107.19 126.09 106.93 125.86 106.1 126.83 105.89 127.05 106.93 128.27 107.02 128.4 128.79 128.4 128.97 128.4 129.88 127.26 130.06 127.05 129.05 125.86 128.97 125.74 107.19 125.74 107.02 125.74 106.93 125.86 107.19 126.09"/><polygon class="cls-1" points="120.76 114.92 121.11 124.17 115.09 124.12 115.53 114.92 120.76 114.92"/><polygon class="cls-2" points="120.42 114.92 120.76 123.81 115.44 123.77 115.88 115.27 120.76 115.27 120.76 114.57 115.53 114.57 115.18 114.57 114.74 124.12 114.7 124.47 121.11 124.51 121.46 124.51 121.11 114.92 120.42 114.92"/><polygon class="cls-1" points="114.39 111.43 116.05 111.43 116.05 112.64 117.27 112.64 117.27 111.43 118.98 111.43 118.98 112.64 120.2 112.64 120.2 111.43 121.9 111.43 121.9 114.22 121.16 114.92 115.18 114.92 114.39 114.22 114.39 111.43"/><polygon class="cls-2" points="114.39 111.43 114.39 111.78 115.7 111.78 115.7 112.64 115.7 113 117.27 113 117.62 113 117.62 111.78 118.63 111.78 118.63 112.64 118.63 113 120.2 113 120.55 113 120.55 111.78 121.55 111.78 121.55 114.09 121.03 114.57 115.18 114.57 114.74 114.09 114.74 111.43 114.39 111.43 114.39 111.78 114.39 111.43 114.04 111.43 114.04 114.22 114.04 114.35 114.96 115.18 121.16 115.27 121.29 115.27 122.12 114.48 122.25 114.35 122.25 111.43 122.25 111.08 120.2 111.08 119.85 111.08 119.85 112.3 119.32 112.3 119.32 111.43 119.32 111.08 117.27 111.08 116.92 111.08 116.92 112.3 116.4 112.3 116.4 111.43 116.4 111.08 114.39 111.08 114.04 111.08 114.04 111.43 114.39 111.43"/><rect class="cls-2" x="117.53" y="118.8" width="1.18" height="2.14"/><polygon class="cls-1" points="121.68 115.79 123.38 115.79 123.38 117.01 124.6 117.01 124.6 115.79 126.31 115.79 126.31 117.01 127.53 117.01 127.53 115.79 129.23 115.79 129.23 118.58 128.49 119.28 122.47 119.28 121.68 118.58 121.68 115.79"/><polygon class="cls-2" points="121.68 115.79 121.68 116.14 123.03 116.14 123.03 117.01 123.03 117.36 124.6 117.36 124.95 117.36 124.95 116.14 125.95 116.14 125.95 117.01 125.95 117.36 127.53 117.36 127.88 117.36 127.88 116.14 128.88 116.14 128.88 118.45 128.36 118.93 122.47 118.93 122.03 118.45 122.03 115.79 121.68 115.79 121.68 116.14 121.68 115.79 121.33 115.79 121.33 118.58 121.33 118.71 122.25 119.54 128.49 119.63 128.62 119.63 129.45 118.84 129.58 118.71 129.58 115.79 129.58 115.44 127.53 115.44 127.18 115.44 127.18 116.66 126.66 116.66 126.66 115.79 126.66 115.44 124.6 115.44 124.25 115.44 124.25 116.66 123.73 116.66 123.73 115.79 123.73 115.44 121.68 115.44 121.33 115.44 121.33 115.79 121.68 115.79"/><polygon class="cls-1" points="128.14 119.28 128.36 124.16 122.6 124.16 122.77 119.28 128.14 119.28"/><polygon class="cls-2" points="127.79 119.28 128.01 123.81 122.95 123.81 123.12 119.63 128.14 119.63 128.14 118.93 122.77 118.93 122.42 118.93 122.25 124.16 122.25 124.51 128.35 124.51 128.71 124.51 128.49 119.28 127.79 119.28"/><polygon class="cls-1" points="106.97 115.79 108.63 115.79 108.63 117.01 109.85 117.01 109.85 115.79 111.56 115.79 111.56 117.01 112.78 117.01 112.78 115.79 114.48 115.79 114.48 118.58 113.74 119.28 107.72 119.28 106.97 118.58 106.97 115.79"/><polygon class="cls-2" points="106.97 115.79 106.97 116.14 108.28 116.14 108.28 117.01 108.28 117.36 109.85 117.36 110.2 117.36 110.2 116.14 111.21 116.14 111.21 117.01 111.21 117.36 112.78 117.36 113.13 117.36 113.13 116.14 114.13 116.14 114.13 118.45 113.61 118.93 107.85 118.93 107.33 118.45 107.33 115.79 106.97 115.79 106.97 116.14 106.97 115.79 106.63 115.79 106.63 118.58 106.63 118.71 107.46 119.54 107.59 119.63 113.74 119.63 113.87 119.63 114.7 118.84 114.83 118.71 114.83 115.79 114.83 115.44 112.78 115.44 112.43 115.44 112.43 116.66 111.91 116.66 111.91 115.79 111.91 115.44 109.85 115.44 109.51 115.44 109.51 116.66 108.98 116.66 108.98 115.79 108.98 115.44 106.97 115.44 106.63 115.44 106.63 115.79 106.97 115.79"/><polygon class="cls-1" points="113.39 119.28 113.61 124.16 107.85 124.16 108.02 119.28 113.39 119.28"/><polygon class="cls-2" points="113.04 119.28 113.26 123.81 108.2 123.81 108.37 119.63 113.39 119.63 113.39 118.93 108.02 118.93 107.67 118.93 107.5 124.16 107.5 124.51 113.61 124.51 113.96 124.51 113.74 119.28 113.04 119.28"/><rect class="cls-2" x="124.87" y="121.37" width="1.22" height="1.31"/><rect class="cls-2" x="110.12" y="121.37" width="1.22" height="1.31"/><path class="cls-3" d="M244.26,5.83A197.24,197.24,0,0,0,180.59.66V394.23c94.94,8,184.27-53.9,207.89-149.34C414.66,139,350.12,32,244.26,5.83"/><path class="cls-4" d="M181.55.52C99.4,7.28,26.73,65.57,5.84,150-20.38,255.88,44.2,362.91,150,389.1c10.41,2.58,21.36,3.74,31.71,4.6Z"/><path class="cls-1" d="M291.63,290.06C249,288.75,53.4,166.66,52,147.25l10.78-18c19.42,28.19,219.39,146.91,239,142.72Z"/><path class="cls-2" d="M291.63,289.71C249.31,288.57,53.4,166.1,52.39,147.2l-.35.05.31.17,10.77-18-.3-.17-.31.22C81.84,157.33,275,272.3,300.66,272.39l1.22-.09,0-.35-.3-.17-10.21,18.11.61.34,10.2-18.11.35-.65-.69.13-1.14.09C275.7,271.82,81.93,156.54,63.12,129l-.34-.44-11,18.5-.05.09v.09c1.71,20,196.92,141.67,239.94,143.16Z"/><path class="cls-1" d="M292.63,290.58,288,291.71c-15.93-1.78-64.36-25.34-121.65-59.64C99.73,192.15,44.67,155.84,50.6,146.33l1.66-2.88.31.09C47.2,159.68,161.25,224.82,167.93,229c65.93,40.89,121.56,64.71,126.49,58.52l-1.79,3.09ZM60.55,126.79c-3.8,10.29,51.05,44.2,117.07,84.34s123,65,127.14,61.43l1.92-3.58-5.71.7c-17.85-5.15-64.32-26.48-122-61.43S71.28,141.14,63.52,127.48l-.87-4h-.18l-1.66,2.88Z"/><path class="cls-2" d="M292.63,290.58l-.09-.35-4.62,1.13c-15.62-1.74-64.14-25.3-121.38-59.6C103.22,193.94,50.3,158.94,50.52,148l.39-1.44,1.53-2.66,0,0,.09-.35-.35-.13-.18,1.3c.22,18.46,109.17,80.38,115.72,84.61,59,36.57,109.64,59.47,123.43,59.52l3.49-1.09-.26-.22-.3-.17-1.79,3.09.3.17H293v-.47l-.44.08.09.35h-.34v1.36l2.44-4.24-.57-.39-3,.83c-13.35,0-64.18-22.87-123.08-59.43-6.51-4-115.63-66.63-115.37-84l.17-1,.09-.35-.65-.22-.27,0-1.78,3.1L49.82,148c.21,12,53,46.38,116.37,84.43,57.33,34.29,105.67,57.85,121.78,59.69l4.75-1.14-.09-.35h0ZM60.55,126.79l-.31-.14L60,127.88c.21,12,53.53,44.59,117.41,83.55,61.87,37.66,115.63,61.74,125.89,61.79l1.65-.39,2-3.67.31-.61-6.38.79c-17.63-5.11-64.09-26.45-121.73-61.4S71.42,140.79,63.82,127.31L63,123.38l-.08-.26h-.66l-1.75,3-.26.44.31.18.31.17.26-.44,1.66-2.88-.31-.17v.35h.18v-.35l-.36.09.88,4c8,13.92,58,46,115.67,81S283,264.84,300.88,270l5.19-.61-1.61,3-1.13.17c-9.74,0-63.75-24.13-125.54-61.74-63.83-38.7-117.29-72-117.06-82.94l.13-1Z"/><path class="cls-1" d="M179.06,298.31c51.48.26,96.38-7.29,116.94-17.94l7.45-13.09c-17.84,9.73-66.27,19.85-124.31,18.33-47.29-.3-97.78-5.24-122-18.94L68.1,281.86c19.68,10.9,66.71,16.4,111,16.45"/><path class="cls-2" d="M179.06,298.65h2.57c50.44,0,94.2-7.46,114.54-18l7.59-13.22.57-1-1.05.57c-16.5,9-59.73,18.45-112.44,18.41l-11.7-.13C131.89,285,81.41,280,57.32,266.37l-.43.52,11,15.18c19.89,11,66.93,16.54,111.22,16.58V298c-44.2,0-91.24-5.54-110.79-16.4l-10.86-15.1-.26.22L57,267c24.35,13.74,74.83,18.67,122.17,19l11.7.13c52.84,0,96-9.39,112.79-18.5l-.18-.31-.3-.17-7.46,13.09C275.75,290.45,232,298,181.63,298h-2.57Z"/><path class="cls-1" d="M179.76,299.48c-29.68-.09-57.07-1.92-78.37-5.8-15.45-3.06-25.74-6.76-33.34-10.77l-2.87-4.37c5.54,3.58,16.53,8.16,36.69,12,21.16,3.93,48.39,5.72,77.89,5.81,28.1-.22,54.62-1.7,76.09-5.46,18.37-3.32,39.19-9.16,44.68-15.4l-3.23,5.23c-6.19,4.67-23,9.91-40.1,13.27-21.64,3.93-49.34,5.5-77.44,5.45m0-12c-32.73-.21-58.73-1.43-81.6-5.67a154.87,154.87,0,0,1-43.5-15l-1.35-2.92c4,3,22.08,10.43,45.42,14.83,22.12,3.93,47.86,5.68,81,5.59,29.19,0,57.51-1.31,79.89-5.59s39.58-9.37,46.56-14l-2.23,4c-2.83,3.23-22.86,9.12-43.89,13.09-22.56,4.1-50.92,5.76-80.28,5.71"/><path class="cls-2" d="M179.76,299.13c-29.68-.09-57-1.91-78.33-5.8-15.4-3.06-25.65-6.72-33.2-10.73l-2.75-4.23-.3.17-.18.3c5.59,3.58,16.62,8.21,36.78,12.09,21.21,3.93,48.48,5.72,78,5.81,28.1-.22,54.67-1.71,76.14-5.46,18.41-3.36,39.22-9.12,44.9-15.53l-.27-.22-.3-.18L297,280.59c-6,4.49-22.82,9.77-39.88,13.09-21.3,3.88-48.52,5.45-76.23,5.45h-1.13v.7h1.13c27.71,0,55-1.57,76.36-5.45,17.1-3.41,33.94-8.6,40.27-13.35l3.32-5.33-.57-.39c-5.32,6.07-26.14,12-44.46,15.27-21.47,3.76-47.95,5.24-76.05,5.46-29.5-.09-56.68-1.88-77.85-5.81-20.11-3.88-31.06-8.46-36.56-12l-.48.48,2.88,4.37C75.52,287.22,85.86,291,101.3,294c21.34,3.88,48.78,5.71,78.46,5.8Zm0-11.65v-.35c-32.73-.21-58.69-1.43-81.55-5.67a154,154,0,0,1-43.38-15l-1.22-2.75-.3.13-.22.26c4.14,3.1,22.17,10.47,45.55,14.93,21.65,3.84,46.73,5.58,78.72,5.58h3.7c28.72,0,56.51-1.4,78.59-5.58,22.29-4.33,39.62-9.39,46.68-14.06l-.17-.3-.31-.18-2.22,4c-2.53,3-22.69,9-43.63,12.92-22.26,4.05-50.18,5.71-79.11,5.71h-1.13v.7h1.13c29,0,56.9-1.66,79.2-5.71,21.11-4,41-9.82,44.1-13.22l2.27-4-.47-.47c-6.9,4.57-24.22,9.68-46.43,14-22,4.18-49.78,5.58-78.5,5.58h-3.7c-32,0-57-1.74-78.59-5.58C75.52,274,57.41,266.54,53.52,263.62L53,264l1.36,2.92a151.27,151.27,0,0,0,43.76,15.23c22.86,4.23,48.91,5.45,81.64,5.67Z"/><path class="cls-1" d="M180.67,231c47.61-.39,106.77-6.67,140.54-20.46v-12c-20,11.25-86.74,18.71-140.93,19.81C116.14,217.72,64,209,41.35,193.45L41,209c41.72,18,84.74,21.81,139.67,22"/><path class="cls-2" d="M180.67,231.37c47.65-.39,106.81-6.67,140.67-20.51l.22-.08V197.91l-.52.3c-19.81,11.17-86.61,18.68-140.76,19.77-64.1-.61-116.2-9.34-138.76-24.83L41,192.8,40.65,209v.22l.22.09c41.76,18.06,84.87,21.85,139.8,22.07v-.69c-54.93-.23-97.87-4-139.54-22L41,209h.35l.35-15.54h-.35l-.22.31c22.87,15.58,75,24.31,139.15,24.92,54.24-1.1,121-8.51,141.11-19.86l-.18-.3h-.34v12h.34l-.13-.31c-33.68,13.75-92.85,20-140.41,20.43Z"/><path class="cls-1" d="M322.83,210.86c-1.18,1.93-23.26,9.65-55.72,15.41a562.38,562.38,0,0,1-86.57,6.41,596.64,596.64,0,0,1-82.95-5.37c-34.07-5.45-51.7-13.08-58.2-15.75V208.2c18.72,7.68,38,12.27,58.73,15.49a582,582,0,0,0,82.29,5.37,564.27,564.27,0,0,0,86-6.5c33.29-5.46,53.84-12.57,56.42-15.84Z"/><path class="cls-2" d="M322.83,210.86l-.31-.17c-.83,1.61-23.12,9.56-55.46,15.23a561.65,561.65,0,0,1-86.52,6.41h-.87a597.92,597.92,0,0,1-82-5.37c-34-5.45-51.62-13-58.12-15.71l-.13.31h.35V208.2h-.35l-.13.31C58,216.23,77.31,220.81,98.08,224a579.87,579.87,0,0,0,80.63,5.37h1.7a564.86,564.86,0,0,0,86-6.5c33.38-5.5,53.8-12.48,56.64-16l-.26-.22h-.35v4.14h.35l-.31-.17.31.17h.35v-5.15l-.61.79c-2.32,3.05-23,10.3-56.2,15.71a562.5,562.5,0,0,1-86,6.5h-1.7a581,581,0,0,1-80.55-5.36c-20.68-3.23-40-7.82-58.64-15.45l-.48-.22v4.1l.22.09c6.5,2.66,24.17,10.34,58.29,15.79A601,601,0,0,0,179.67,233h.87a561.51,561.51,0,0,0,86.61-6.42c32.55-5.84,54.46-13.35,56-15.57l.05-.09v-.09Z"/><path class="cls-1" d="M322.83,198.6c-3.62,3-28.06,9.47-59.65,14.66a562,562,0,0,1-82.29,5.85c-32.6.09-59.25-2.18-79.5-5.19-32.11-4.32-62-18.72-62-18.72l0-4.71s29.85,15.22,62.4,19.94c20.07,2.88,46.69,5.06,79.15,5a551.53,551.53,0,0,0,81.68-5.93c31.81-4.45,57.68-12.78,60.26-14.83Zm0,12.26c-1.18,1.88-23.26,9.65-55.72,15.41a562.38,562.38,0,0,1-86.57,6.41,596.64,596.64,0,0,1-82.95-5.37c-34.07-5.45-51.7-13.08-58.2-15.75V208.2c18.72,7.68,38.05,12.27,58.73,15.49a582,582,0,0,0,82.29,5.37,564.27,564.27,0,0,0,86-6.5c33.29-5.46,53.84-12.57,56.42-15.84Z"/><path class="cls-2" d="M322.83,198.6l-.22-.26c-3.4,2.84-28,9.42-59.47,14.58a562.83,562.83,0,0,1-82.25,5.85h-1.83c-31.72,0-57.77-2.23-77.63-5.2-32-4.32-61.82-18.67-61.91-18.67l-.13.3h.35l-.05-4.71h-.35l-.17.3s29.89,15.27,62.53,20c19.89,2.84,46.2,5,78.23,5h1a552.14,552.14,0,0,0,81.72-5.93c31.9-4.49,57.64-12.74,60.44-14.92l-.22-.26h-.35v3.92h.35l-.22-.26.22.26h.35v-4.66l-.57.47c-2.36,1.92-28.36,10.35-60.08,14.75a552.09,552.09,0,0,1-81.64,5.94h-1c-32,0-58.29-2.18-78.15-5-32.46-4.71-62.22-19.9-62.26-19.9l-.52-.26,0,5.28v.22l.17.09S69.15,210,101.35,214.27c19.85,3,45.94,5.19,77.71,5.19h1.83a564.42,564.42,0,0,0,82.34-5.84c31.63-5.24,56-11.66,59.82-14.75l.13-.09v-.18Zm0,12.26-.31-.17c-.83,1.57-23.12,9.56-55.46,15.23a561.65,561.65,0,0,1-86.52,6.41h-.87a597.92,597.92,0,0,1-82-5.37c-34-5.45-51.62-13-58.12-15.71l-.13.31h.35V208.2h-.35l-.13.31C58,216.23,77.35,220.81,98.08,224a579.87,579.87,0,0,0,80.63,5.37h1.7a564.86,564.86,0,0,0,86-6.5c33.38-5.5,53.8-12.48,56.64-16l-.26-.22h-.35v4.14h.35l-.31-.17.31.17h.35v-5.15l-.61.79c-2.32,3.05-23,10.3-56.2,15.71a562.5,562.5,0,0,1-86,6.5h-1.7a581,581,0,0,1-80.55-5.36c-20.64-3.23-40-7.82-58.64-15.45l-.48-.22v4.1l.22.09c6.5,2.66,24.17,10.34,58.29,15.79A601,601,0,0,0,179.67,233h.87a561.51,561.51,0,0,0,86.61-6.42c32.55-5.84,54.46-13.39,56-15.57l.05-.09v-.09Z"/><path class="cls-1" d="M181.41,159c42.68-.3,95.38-5.8,125.67-17.88l-6.51-10.61c-17.93,9.91-70.9,16.45-119.5,17.41-57.51-.52-98.18-5.89-118.51-19.55l-6.15,11.31c37.39,15.83,75.7,19.2,125,19.32"/><path class="cls-2" d="M181.41,159.33c42.72-.3,95.43-5.8,125.8-17.93l.39-.13-6.72-11-.17-.31-.31.18c-17.76,9.82-70.77,16.4-119.33,17.36-57.47-.52-98.14-5.89-118.34-19.5l-.3-.17-6.33,11.6-.17.35.35.13c37.43,15.88,75.83,19.24,125.13,19.37v-.7c-49.3-.12-87.52-3.49-124.88-19.28l-.12.31.3.17,6.15-11.3-.3-.18-.22.31c20.51,13.7,61.17,19.07,118.73,19.59,48.64-1,101.57-7.5,119.68-17.45l-.18-.31-.3.18,6.5,10.6.31-.17-.14-.31c-30.19,12-82.9,17.54-125.53,17.84Z"/><path class="cls-1" d="M303.15,130.58c-3.27,2.57-19.37,8.34-47.78,12.83a503.92,503.92,0,0,1-73.78,5.19c-29.24,0-53.1-1.92-71.3-4.58-28.8-3.75-44.16-10.56-49.7-12.53l1.7-2.83c4.32,2.14,19.12,8.16,48.31,12.3,18,2.53,41.88,4.41,71,4.41a499.55,499.55,0,0,0,73.22-5.24c28.53-3.88,43.89-11.17,46.25-13Zm5.67,10.78c-1,1.65-20.77,8.46-49.92,13.52a517.64,517.64,0,0,1-77.66,5.59,546.49,546.49,0,0,1-74.35-4.71C76.3,151,60.5,144.32,54.7,142l1.4-3c16.84,6.72,32.68,10.74,51.23,13.62a553.58,553.58,0,0,0,73.82,4.71,520.34,520.34,0,0,0,77.14-5.76c29.85-4.8,46.17-11,48.44-13.88Z"/><path class="cls-2" d="M302.93,130.32c-3.1,2.44-19.24,8.29-47.6,12.74a503.42,503.42,0,0,1-73.74,5.19h-1c-28.8,0-52.32-2-70.29-4.58-28.76-3.75-44.08-10.52-49.61-12.52l-.14.34.31.18,1.7-2.83-.31-.18-.17.3c4.36,2.19,19.2,8.21,48.43,12.35,18,2.54,41.93,4.41,71,4.41a500.05,500.05,0,0,0,73.26-5.24c28.58-3.92,43.94-11.16,46.42-13.13l-.21-.26-.31.17,2.09,3.49.62-.35-2.1-3.49-.22-.35-.3.27c-2.23,1.79-17.59,9.07-46.08,13A500.29,500.29,0,0,1,181.59,145c-29.11,0-53-1.87-70.95-4.4-29.15-4.15-43.94-10.17-48.22-12.27l-.25-.13-1.88,3.1-.22.35.39.13c5.55,2,20.95,8.82,49.79,12.57,18,2.62,41.58,4.58,70.38,4.58h1a504.53,504.53,0,0,0,73.82-5.19c28.45-4.54,44.51-10.26,48-12.92Zm5.89,11-.3-.18c-.66,1.35-20.64,8.38-49.66,13.35a517,517,0,0,1-77.62,5.59h-.92a546.28,546.28,0,0,1-73.39-4.71c-30.54-4.8-46.29-11.39-52.1-13.75l-.13.31.31.13,1.4-3L56.1,139l-.13.31c16.88,6.76,32.72,10.78,51.31,13.65a552.48,552.48,0,0,0,73.87,4.72,521.21,521.21,0,0,0,77.19-5.76c29.93-4.85,46.16-10.91,48.65-14l-.26-.22-.31.18,2.1,3.66.3-.17-.3-.18.3.18.31-.18-2.1-3.66-.26-.44-.31.39c-2,2.66-18.45,9-48.21,13.75a520.3,520.3,0,0,1-77.1,5.76,551.22,551.22,0,0,1-73.78-4.71c-18.5-2.88-34.34-6.9-51.14-13.57l-.31-.13-1.52,3.27-.17.3.34.13c5.8,2.36,21.64,9,52.28,13.83a547.36,547.36,0,0,0,73.47,4.72h.92A518.39,518.39,0,0,0,259,155.23c29.23-5.14,48.82-11.74,50.18-13.7l.08-.17-.08-.18Z"/><path class="cls-1" d="M181,326.41A124.42,124.42,0,1,1,305.46,202,124.41,124.41,0,0,1,181,326.41m0-262.06A137.64,137.64,0,1,0,318.64,202,137.65,137.65,0,0,0,181,64.35"/><path class="cls-1" d="M181,65.79A136.22,136.22,0,1,0,317.29,202,136.27,136.27,0,0,0,181,65.79M320,202A139,139,0,1,1,181,63,139,139,0,0,1,320,202"/><path class="cls-2" d="M181,65.79v-.35A136.57,136.57,0,1,0,317.64,202,136.64,136.64,0,0,0,181,65.44v.7A135.87,135.87,0,1,1,45.11,202,136,136,0,0,1,181,66.14ZM320,202h-.35A138.67,138.67,0,1,1,181,63.34,138.78,138.78,0,0,1,319.69,202h.69A139.37,139.37,0,1,0,181,341.37,139.36,139.36,0,0,0,320.38,202Z"/><path class="cls-1" d="M181,79A123,123,0,1,0,304.07,202,123.07,123.07,0,0,0,181,79M306.81,202A125.79,125.79,0,1,1,181,76.17,125.81,125.81,0,0,1,306.81,202"/><path class="cls-2" d="M181,79v-.35A123.38,123.38,0,1,0,304.41,202,123.44,123.44,0,0,0,181,78.61v.7A122.68,122.68,0,1,1,58.32,202,122.87,122.87,0,0,1,181,79.31ZM306.81,202h-.35A125.44,125.44,0,1,1,181,76.52,125.62,125.62,0,0,1,306.46,202h.7A126.14,126.14,0,1,0,181,328.2,126.16,126.16,0,0,0,307.16,202Z"/><path class="cls-1" d="M179.58,172.64c58-.3,118.51,8.29,141.63,20.42V208c-20.11-11.05-76.09-22.61-141.54-20.9-53.28.34-110.09,6-138.67,21.59V191.45c23.48-12.44,88.71-18.72,138.58-18.81"/><path class="cls-2" d="M179.58,173h3c57,0,115.84,8.51,138.45,20.38l.17-.31h-.34V208h.34l.18-.31c-18.9-10.34-68.94-21.12-128.8-21.12-4.28,0-8.6,0-12.92.18-53.32.35-110.13,6-138.84,21.64l.17.3h.35V191.45H41l.18.3c23.3-12.39,88.57-18.67,138.4-18.76v-.7c-49.91.09-115.1,6.38-138.75,18.85l-.18.09v18l.53-.26c28.45-15.54,85.26-21.21,138.49-21.55,4.36-.14,8.64-.18,12.92-.18,59.77,0,109.77,10.77,128.45,21l.52.31V192.84l-.17-.09c-22.87-12-81.68-20.46-138.8-20.46h-3Z"/><path class="cls-1" d="M180.37,171.29c31.63-.09,62.91,1.75,87.26,6.24,19.24,3.79,48.26,9.77,55.2,15.1v5.93c-6.24-7.07-36-13.75-56.68-17.5-24.17-4.27-54.15-6-85.78-6.23-33.25.08-64,2.18-87.79,6.63-22.74,4.4-46.95,9.64-53.19,13.74v-5c8.59-4.63,35.21-8.86,52.66-12.31,24-4.49,54.89-6.54,88.32-6.63m0,13.7c33.07-.09,65,1.79,90.49,6.5,23.65,4.5,48.74,11.26,52,14.88v4.54c-7.85-5.24-27.4-11.08-52.49-16s-57.16-6.42-90.06-6.33C143,188.48,114,190.49,89,194.94c-26.31,5-45.16,12.22-49.65,15.62v-4.71c8.77-4.63,25.66-10.12,49-14.4,25.74-4.8,55.06-6.29,92-6.46"/><path class="cls-2" d="M180.37,171.64h2.13c30.9,0,61.31,1.83,85.09,6.24,19.2,3.75,48.26,9.82,55,15l.22-.26h-.35v5.93h.35l.26-.22c-6.46-7.24-36.17-13.83-56.9-17.62-24.17-4.28-54.19-6-85.82-6.24-33.25.08-64,2.18-87.84,6.63-22.77,4.45-46.95,9.59-53.32,13.78l.18.31h.35v-5h-.35l.17.3C48,186,74.69,181.72,92.1,178.27c24-4.49,54.84-6.54,88.27-6.63v-.7C146.94,171,116,173.08,92,177.57c-17.5,3.45-44.07,7.68-52.8,12.35L39,190v5.84l.52-.34c6.11-4.06,30.37-9.34,53.06-13.7,23.82-4.45,54.5-6.55,87.75-6.64,31.63.26,61.56,2,85.73,6.24,20.64,3.71,50.45,10.48,56.47,17.37l.61.7v-7l-.13-.09c-7.12-5.45-36.09-11.34-55.37-15.18-23.83-4.4-54.28-6.24-85.18-6.24h-2.13Zm0,13.35v.35h2.18c32.28,0,63.35,1.87,88.27,6.5,23.56,4.45,48.78,11.34,51.75,14.75l.26-.22h-.35v4.54h.35l.17-.31c-7.94-5.28-27.49-11.12-52.62-16-24.56-4.67-55.59-6.33-87.61-6.33h-5.89c-35.7,0-63.71,2-87.88,6.33-26.4,5.06-45.21,12.22-49.83,15.71l.22.26h.35v-4.71h-.35l.17.3c8.69-4.58,25.57-10.08,48.87-14.35,25.74-4.8,55-6.29,91.94-6.46v-.7c-36.92.17-66.28,1.66-92,6.46-23.38,4.28-40.27,9.77-49.13,14.44l-.17.09v5.62l.57-.43c4.36-3.32,23.25-10.56,49.47-15.53,24.14-4.32,52.15-6.33,87.8-6.33h5.89c32,0,63,1.66,87.52,6.33,25,4.88,44.6,10.73,52.36,15.92l.53.35v-5.32l-.09-.09c-3.49-3.84-28.45-10.47-52.18-15-25-4.62-56.08-6.5-88.36-6.5h-2.18Z"/><path class="cls-1" d="M180.45,107.8c52-.26,97.39,7.29,118.16,17.94l7.55,13.09c-18-9.73-67-19.86-125.66-18.33-47.78.31-98.88,5.24-124.49,18.94l9-15.14c21-10.87,70.64-16.45,115.4-16.5"/><path class="cls-2" d="M180.45,108.15h2.62c50.88,0,95.08,7.47,115.37,17.89l7.41,13,.31-.17.17-.31c-16.92-9.12-60.6-18.5-114-18.54l-11.82.17c-47.83.31-98.92,5.24-124.66,19l.17.31.31.17,9-15.14c20.77-10.69,70.38-16.27,115.1-16.32v-.7C135.64,107.5,86,113.08,64.87,124l-9.16,15.27-.66,1.1,1.14-.62c25.48-13.65,76.57-18.58,124.31-18.89l11.82-.18c53.32,0,97,9.43,113.67,18.46l1.09.61-8.16-14.18c-20.69-10.64-64.89-18.11-115.85-18.11h-2.62Z"/><path class="cls-1" d="M181.11,106.62c28.4,0,56.42,1.53,78.28,5.46,17.23,3.36,34.29,8.6,40.53,13.27l3.32,5.23c-5.59-6.24-26.62-12.13-45.21-15.4-21.68-3.75-48.52-5.24-76.92-5.46-29.8,0-57.38,1.88-78.72,5.81C82,119.41,68.84,124,63.3,127.57l2.83-4.36c7.73-4,20.12-7.73,35.79-10.78,21.51-3.93,49.21-5.72,79.19-5.81m0,12c29.67-.08,58.33,1.62,81.2,5.72,21.21,3.93,41.45,9.86,44.33,13.09l2.27,3.93c-7.07-4.58-24.57-9.69-47.08-14s-51.27-5.68-80.76-5.59c-33.51-.13-59.52,1.66-81.86,5.59-23.61,4.4-40,10.68-44.07,13.7l2.22-4.19c7.86-4,20.34-8.86,41.28-12.61,23.09-4.24,49.39-5.5,82.47-5.68"/><path class="cls-2" d="M181.11,107h1.13c28,0,55.55,1.56,77.1,5.45,17.19,3.31,34.26,8.59,40.36,13.18l3.23,5.14.31-.17.26-.22c-5.8-6.41-26.79-12.22-45.42-15.53-21.69-3.75-48.57-5.24-77-5.46-29.8,0-57.42,1.88-78.8,5.81-20.38,3.88-33.56,8.46-39.19,12.08l.18.31.31.17,2.83-4.36c7.51-3.84,19.89-7.55,35.52-10.6,21.51-3.93,49.17-5.72,79.15-5.8v-.7c-30,.08-57.73,1.87-79.24,5.8-15.71,3-28.1,6.76-35.91,10.82l-3,4.5.49.48c5.45-3.54,18.62-8.12,39-12,21.33-3.93,48.87-5.76,78.67-5.8,28.4.21,55.2,1.7,76.88,5.45,18.54,3.23,39.57,9.2,45,15.27l.57-.4-3.31-5.23c-6.46-4.85-23.52-10-40.76-13.44-21.64-3.88-49.21-5.45-77.23-5.45h-1.13Zm0,11.64V119h2.14c28.88,0,56.72,1.71,79,5.72,21.12,3.89,41.5,9.9,44.12,13l2.22,3.88.31-.17.17-.31c-7.15-4.62-24.65-9.73-47.2-14-21.95-4.15-49.66-5.59-78.24-5.59h-6c-31.89,0-56.9,1.79-78.49,5.59-23.65,4.4-40,10.68-44.25,13.78l.22.27.31.17,2.22-4.19c7.68-3.88,20.11-8.68,41-12.43,23.09-4.24,49.35-5.5,82.43-5.68v-.7c-33.08.18-59.43,1.45-82.51,5.68-21,3.75-33.51,8.64-41.41,12.65l-2.36,4.32.53.44c4-2.93,20.33-9.25,43.89-13.62,21.56-3.79,46.56-5.58,78.41-5.58h6c28.58,0,56.2,1.44,78.1,5.58,22.52,4.28,40,9.38,47,13.92l.48-.48-2.27-3.92c-3.18-3.49-23.29-9.3-44.59-13.27-22.34-4-50.17-5.72-79.1-5.72h-2.14Z"/><path class="cls-1" d="M181.11,106.62c28.4,0,56.42,1.53,78.28,5.46,17.23,3.36,34.29,8.6,40.53,13.27l3.32,5.23c-5.59-6.24-26.62-12.13-45.21-15.4-21.64-3.75-48.52-5.24-76.92-5.46-29.8,0-57.38,1.88-78.72,5.81C82,119.37,68.84,124,63.3,127.57l2.83-4.36c7.73-4,20.12-7.73,35.79-10.78,21.51-3.93,49.21-5.72,79.19-5.81m0,12c29.67-.08,58.33,1.62,81.15,5.72,21.26,3.93,41.5,9.86,44.38,13.09l2.27,3.93c-7.07-4.58-24.57-9.69-47.08-14s-51.27-5.68-80.76-5.59c-33.51-.13-59.52,1.66-81.86,5.59-23.61,4.4-40,10.68-44.07,13.7l2.22-4.19c7.86-4,20.34-8.86,41.28-12.61,23.09-4.24,49.39-5.5,82.47-5.68"/><path class="cls-2" d="M181.11,106.62V107h1.13c28,0,55.55,1.56,77.1,5.45,17.19,3.31,34.26,8.59,40.36,13.18l3.23,5.14.31-.17.26-.22c-5.8-6.41-26.79-12.22-45.42-15.53-21.64-3.75-48.57-5.24-77-5.46-29.8,0-57.42,1.88-78.8,5.81-20.38,3.84-33.56,8.46-39.19,12.08l.18.31.31.17,2.83-4.36c7.51-3.84,19.89-7.55,35.52-10.6,21.51-3.93,49.17-5.72,79.15-5.8v-.7c-30,.08-57.73,1.87-79.24,5.8-15.71,3-28.1,6.76-35.91,10.82l-3,4.5.49.48c5.45-3.54,18.62-8.16,39-12,21.33-3.93,48.87-5.76,78.67-5.8,28.4.21,55.24,1.7,76.88,5.45,18.54,3.23,39.57,9.2,45,15.27l.57-.4-3.31-5.23c-6.46-4.85-23.52-10-40.76-13.44-21.64-3.88-49.21-5.45-77.23-5.45h-1.13Zm0,12V119h2.14c28.88,0,56.72,1.71,79,5.72,21.16,3.89,41.54,9.9,44.16,13l2.22,3.88.31-.17.17-.31c-7.15-4.62-24.65-9.73-47.2-14-21.95-4.15-49.66-5.59-78.24-5.59h-6c-31.89,0-56.9,1.79-78.49,5.59-23.65,4.4-40,10.68-44.25,13.78l.22.27.31.17,2.22-4.19c7.68-3.88,20.11-8.68,41-12.43,23.09-4.24,49.35-5.5,82.43-5.68v-.7c-33.08.18-59.43,1.45-82.51,5.68-21,3.75-33.51,8.64-41.41,12.65l-2.36,4.32.53.44c4-2.93,20.33-9.25,43.89-13.62,21.56-3.79,46.56-5.58,78.41-5.58h6c28.58,0,56.2,1.44,78.1,5.58,22.52,4.28,40,9.38,47,13.92l.48-.48-2.27-3.92c-3.18-3.49-23.29-9.3-44.63-13.27-22.3-4-50.13-5.72-79.06-5.72h-2.14Z"/><path class="cls-1" d="M180,246.82c42.67.3,95.38,5.8,125.66,17.89l-6.5,10.64c-17.94-9.9-70.91-16.44-119.51-17.41-57.55.53-97.39,6.42-117.33,17.63l-5.54-9.42C92.4,250.35,130.71,247,180,246.82"/><path class="cls-2" d="M180,247.17c42.63.3,95.34,5.8,125.53,17.84l.13-.3-.3-.18-6.51,10.65.31.17.17-.3c-18.11-10-71-16.5-119.68-17.46-57.6.53-97.43,6.42-117.5,17.68l.17.3.3-.17L57.1,266l-.3.18.13.3C92.49,250.7,130.71,247.3,180,247.17v-.7c-49.31.13-87.7,3.53-123.36,19.37l-.34.13L62,275.75l.18.3.3-.17c19.81-11.17,59.65-17.06,117.16-17.59,48.56,1,101.57,7.51,119.33,17.37l.31.18,6.68-11,.21-.35-.39-.12c-30.37-12.14-83.07-17.63-125.79-17.94Z"/><path class="cls-1" d="M295.73,277.23c-5.76-2.88-20.2-8.38-43.46-11.56a502.89,502.89,0,0,0-72.82-5.19c-28.93-.05-52.71,1.83-70.55,4.4C79.83,269,65.13,275.05,60.85,277.19l-1.69-2.84c5.53-2,20.76-8.77,49.43-12.57,18.07-2.61,41.8-4.58,70.86-4.54a505.79,505.79,0,0,1,73.35,5.15c23.38,3.76,38.4,8.3,44.68,11.26ZM306,264.49l-2.14,3.67c-2.31-2.93-18.5-9.13-48.21-13.92a506.53,506.53,0,0,0-76.62-5.72,537,537,0,0,0-73.39,4.71,226.38,226.38,0,0,0-51,13.57l-1.39-2.92c5.8-2.36,21.46-9,51.83-13.83a547.06,547.06,0,0,1,74-4.67A507,507,0,0,1,256.33,251c29,5,48.65,11.87,49.7,13.53"/><path class="cls-2" d="M295.73,277.23l.13-.3c-5.75-2.93-20.24-8.43-43.54-11.61a503.67,503.67,0,0,0-72.87-5.19h-1c-28.5,0-52,1.87-69.6,4.4C79.75,268.68,65,274.7,60.68,276.88l.17.31.31-.18-1.7-2.83-.3.17.13.31c5.53-2,20.72-8.73,49.34-12.53a494.86,494.86,0,0,1,69.86-4.54h1a504.9,504.9,0,0,1,73.3,5.15c23.35,3.76,38.36,8.3,44.6,11.22l.13-.31-.31-.13-1.74,3.58.3.13.13-.3-.13.3.31.13,1.74-3.58.18-.3-.35-.13c-6.33-3-21.34-7.55-44.77-11.31a506.62,506.62,0,0,0-73.39-5.14h-1a496.78,496.78,0,0,0-69.94,4.53C79.83,265.23,64.56,272,59,274l-.39.14,1.92,3.18.17.27.31-.14c4.19-2.09,18.89-8.12,47.91-12.26,17.63-2.57,41.06-4.41,69.51-4.41h1a502.05,502.05,0,0,1,72.78,5.2c23.21,3.18,37.61,8.68,43.33,11.52l.35.17.13-.35ZM306,264.49l-.31-.17L303.59,268l.3.18.26-.22c-2.53-3.14-18.63-9.21-48.43-14.05a507,507,0,0,0-76.66-5.72h-.87a540.61,540.61,0,0,0-72.57,4.72c-18.54,2.87-34.25,6.89-51.05,13.61l.13.3.31-.13-1.4-2.92-.3.13.13.3c5.8-2.35,21.42-9,51.75-13.78a541.57,541.57,0,0,1,73-4.68h.91a506.33,506.33,0,0,1,77.15,5.59c28.84,4.93,48.74,12,49.43,13.35l.31-.17-.31-.17.31.17.3-.17c-1.39-2-20.9-8.6-50-13.71A507.59,507.59,0,0,0,179.14,245h-.91a551.73,551.73,0,0,0-73.13,4.67C74.69,254.5,59,261.22,53.18,263.57l-.35.14,1.57,3.22.13.31.3-.13a227.69,227.69,0,0,1,50.88-13.53,532.77,532.77,0,0,1,72.48-4.71h.87a505.67,505.67,0,0,1,76.57,5.72c29.63,4.75,45.91,11,48,13.78l.31.39,2.39-4.1.09-.17-.09-.17Z"/><rect class="cls-1" x="186.56" y="62.29" width="2.97" height="279.42"/><polygon class="cls-2" points="189.53 341.72 189.53 341.37 186.91 341.37 186.91 62.65 189.18 62.65 189.18 341.72 189.53 341.72 189.53 341.37 189.53 341.72 189.88 341.72 189.88 61.95 186.56 61.95 186.21 61.95 186.21 342.07 189.53 342.07 189.88 342.07 189.88 341.72 189.53 341.72"/><rect class="cls-1" x="172.51" y="62.29" width="2.97" height="279.42"/><polygon class="cls-2" points="175.48 341.72 175.48 341.37 172.86 341.37 172.86 62.65 175.13 62.65 175.13 341.72 175.48 341.72 175.48 341.37 175.48 341.72 175.83 341.72 175.83 61.95 172.51 61.95 172.16 61.95 172.16 342.07 175.48 342.07 175.83 342.07 175.83 341.72 175.48 341.72"/><rect class="cls-1" x="175.48" y="63.69" width="11.08" height="276.64"/><polygon class="cls-2" points="186.56 340.33 186.56 339.98 175.83 339.98 175.83 64.04 186.21 64.04 186.21 340.33 186.56 340.33 186.56 339.98 186.56 340.33 186.91 340.33 186.91 63.34 175.48 63.34 175.13 63.34 175.13 340.67 186.56 340.67 186.91 340.67 186.91 340.33 186.56 340.33"/><path class="cls-1" d="M63.82,124.12c43-.56,241.34,121.21,241.9,143.6l-12.3,18.85c-5.54-26-206.78-144.51-240-142.29Z"/><path class="cls-2" d="M63.82,124.47h.31c43.24-.22,241,121.48,241.25,143.25h.34l-.3-.18-12.31,18.85.31.18.35-.09C287.92,260.3,90.7,144.06,54.4,143.89l-1,0,0,.35.31.18L64.13,124.3l-.61-.35L53.13,144.11l-.3.56.65,0,.92,0C90,144.46,287.92,261.3,293.07,286.66l.17.78L306,267.89l0-.08v-.09c-.91-22.91-198-143.77-241.94-144h-.31Z"/><path class="cls-1" d="M306.94,269.11c5-9.94-49.3-50.87-116.67-90.75-68.9-39-118.55-62.05-127.62-55.15l-2.06,3.66.53-.61,5.63-1.35c15.62.26,60.21,20.77,122.82,56.68,27.4,16,115.85,72.69,115.54,88.62l-.39,2.31ZM52.17,143.58c8-5.45,66.59,20.68,127.89,57.64,61.13,37.09,119.51,79,114.28,86.79l-1.75,2.75-.79.61-.08-4.1c-2.62-8.56-44.07-41.63-112.84-83.17-67-40-122.87-64-128.45-57.16Z"/><path class="cls-2" d="M307.25,269.29l.35-1.62c-.17-12.52-52.66-51.35-117.15-89.61C129.67,143.67,84,121.68,67.53,121.64l-5.1,1.3-2.14,3.76.56.39.53-.61,5.45-1.22c15.32.22,60,20.72,122.57,56.63,27.31,15.8,115.58,72.74,115.36,88.23v.13l-.39,2.23.66.21,2.22-3.4-.61-.35-1.31,2,.13-.7v-.13c-.22-16.58-88.31-72.78-115.71-88.84-62.66-35.91-107.16-56.42-123-56.72L61,125.91l-.7.74.26.22.31.18L63,123.38l4.58-1c16,0,61.87,22,122.57,56.34,64.44,38,117,77.48,116.8,89l-.26,1.27ZM52.17,143.58l.18.31,3.1-.7c14.92,0,68.63,24.65,124.44,58.34,58.51,35.38,114.62,75.7,114.4,85.3l-.26,1-1.74,2.75-.13.09-.09-3.4c-2.84-8.95-44.2-41.85-113-83.47-59.39-35.39-109.91-58.34-124.79-58.39l-4.11,1.31.27.22.3.18,1.75-3.36-.31-.18-.3-.17-1.75,3.36.57.39,3.58-1c14.44,0,65.14,22.91,124.44,58.3,68.72,41.45,110.26,74.7,112.66,82.94l.09,4v.69l1.35-1,1.83-2.84.35-1.35c-.18-10.69-56.16-50.26-114.76-85.91-55.89-33.69-109.42-58.38-124.78-58.43l-3.49.79Z"/><path class="cls-5" d="M98.51,215.88a81.72,81.72,0,0,0,24.26,58c15,15,35.47,24.44,58.12,24.44a82.69,82.69,0,0,0,82.69-82.42V105.66H98.51Z"/><path class="cls-2" d="M98.51,215.88h-.35a82.28,82.28,0,0,0,24.35,58.3c15.14,15,35.65,24.52,58.38,24.52a83,83,0,0,0,83-82.77V105.32H98.16V215.88h.7V106H263.23V215.93A82.4,82.4,0,0,1,180.89,298c-22.56,0-42.89-9.43-57.86-24.35a81.24,81.24,0,0,1-24.17-57.77Z"/><path class="cls-3" d="M101.83,215.88v.05a79.19,79.19,0,0,0,158.38,0V109.2H101.91Z"/><path class="cls-2" d="M101.48,215.88v.05a79.54,79.54,0,0,0,159.08,0V108.85h-159l-.09,107h.7l.08-106.33H259.87V216a78.82,78.82,0,0,1-78.81,78.45,79.16,79.16,0,0,1-78.88-78.49v-.05Z"/><path class="cls-5" d="M134.2,211v0A53.47,53.47,0,0,0,148,247.21a43.86,43.86,0,0,0,66.15.09,53.73,53.73,0,0,0,13.74-36.22V141.66H134.25Z"/><path class="cls-2" d="M133.85,211v0a53.84,53.84,0,0,0,13.88,36.39,44.17,44.17,0,0,0,66.67.08,54,54,0,0,0,13.83-36.43V141.31H133.9L133.85,211h.7l0-69h92.94v69.07a53.36,53.36,0,0,1-13.65,36A44.31,44.31,0,0,1,181.06,262c-12.74,0-24.39-5.72-32.81-15a53.15,53.15,0,0,1-13.7-36v0Z"/><polygon class="cls-6" points="170.72 203.97 170.72 203.97 173.74 211.95 181.02 215.27 188.31 211.95 191.32 203.97 191.32 188.7 170.72 188.7 170.72 203.97"/><rect class="cls-5" x="185.24" y="192.66" width="2.9" height="2.9" transform="translate(-82.58 188.94) rotate(-45.02)"/><polygon class="cls-5" points="180.89 197.6 178.84 199.65 180.89 201.75 182.98 199.65 180.89 197.6"/><polygon class="cls-5" points="186.65 203.41 184.6 205.46 186.65 207.5 188.74 205.46 186.65 203.41"/><polygon class="cls-5" points="175.39 203.41 173.3 205.5 175.39 207.55 177.49 205.5 175.39 203.41"/><polygon class="cls-5" points="175.39 192.06 173.3 194.11 175.39 196.16 177.44 194.11 175.39 192.06"/><polygon class="cls-6" points="141.75 203.97 141.75 203.97 144.76 211.95 152.09 215.27 159.33 211.95 162.39 203.97 162.39 188.7 141.75 188.7 141.75 203.97"/><rect class="cls-5" x="156.27" y="192.66" width="2.9" height="2.9" transform="translate(-91.05 168.31) rotate(-44.98)"/><polygon class="cls-5" points="151.92 197.6 149.82 199.65 151.92 201.75 154.01 199.65 151.92 197.6"/><polygon class="cls-5" points="157.72 203.41 155.63 205.46 157.72 207.5 159.77 205.46 157.72 203.41"/><polygon class="cls-5" points="146.42 203.41 144.33 205.5 146.42 207.55 148.51 205.5 146.42 203.41"/><polygon class="cls-5" points="146.42 192.06 144.33 194.11 146.42 196.16 148.47 194.11 146.42 192.06"/><polygon class="cls-6" points="199.69 203.97 202.71 211.95 209.99 215.27 217.28 211.95 220.33 203.97 220.33 188.7 199.69 188.7 199.69 203.97"/><rect class="cls-5" x="214.22" y="192.66" width="2.9" height="2.9" transform="translate(-74.09 209.27) rotate(-44.98)"/><polygon class="cls-5" points="209.86 197.6 207.81 199.65 209.86 201.75 211.96 199.65 209.86 197.6"/><polygon class="cls-5" points="215.62 203.41 213.61 205.46 215.62 207.5 217.72 205.46 215.62 203.41"/><polygon class="cls-5" points="204.36 203.41 202.27 205.5 204.36 207.55 206.46 205.5 204.36 203.41"/><polygon class="cls-5" points="204.32 192.06 202.27 194.11 204.32 196.16 206.41 194.11 204.32 192.06"/><polygon class="cls-6" points="170.72 238.88 170.72 238.92 173.74 246.86 181.02 250.18 188.31 246.86 191.32 238.92 191.32 223.65 170.72 223.61 170.72 238.88"/><rect class="cls-5" x="185.24" y="227.56" width="2.9" height="2.9" transform="translate(-107.27 199.26) rotate(-45.03)"/><polygon class="cls-5" points="180.89 232.5 178.84 234.56 180.89 236.65 182.98 234.56 180.89 232.5"/><polygon class="cls-5" points="186.65 238.31 184.6 240.36 186.65 242.41 188.74 240.36 186.65 238.31"/><polygon class="cls-5" points="175.39 238.31 173.3 240.41 175.39 242.46 177.49 240.41 175.39 238.31"/><polygon class="cls-5" points="175.39 226.96 173.3 229.01 175.39 231.06 177.44 229.01 175.39 226.96"/><polygon class="cls-6" points="170.72 169.06 170.72 169.06 173.74 177.05 181.02 180.37 188.31 177.05 191.32 169.11 191.32 153.79 170.72 153.79 170.72 169.06"/><rect class="cls-5" x="185.24" y="157.75" width="2.9" height="2.9" transform="translate(-57.88 178.78) rotate(-45.03)"/><polygon class="cls-5" points="180.89 162.69 178.84 164.75 180.89 166.84 182.98 164.75 180.89 162.69"/><polygon class="cls-5" points="186.65 168.5 184.6 170.55 186.65 172.6 188.74 170.55 186.65 168.5"/><polygon class="cls-5" points="175.39 168.5 173.3 170.59 175.39 172.6 177.49 170.59 175.39 168.5"/><polygon class="cls-5" points="175.39 157.15 173.3 159.21 175.39 161.26 177.44 159.21 175.39 157.15"/><polygon class="cls-1" points="169.59 136.91 192.45 136.91 191.41 128.09 170.55 128.09 169.59 136.91"/><polygon class="cls-2" points="169.59 136.91 169.59 137.25 192.45 137.25 192.85 137.25 191.75 128.05 191.71 127.74 170.55 127.74 170.24 127.74 169.24 136.87 169.19 137.25 169.59 137.25 169.59 136.91 169.94 136.95 170.85 128.44 191.1 128.44 192.06 136.56 169.59 136.56 169.59 136.91 169.94 136.95 169.59 136.91"/><polygon class="cls-1" points="180.94 128.79 186.69 136.91 175.35 136.91 180.94 128.79"/><polygon class="cls-2" points="180.67 129.01 186.04 136.56 176 136.56 181.24 129.01 180.63 128.57 175.04 136.69 174.69 137.25 186.69 137.25 187.39 137.25 181.2 128.57 180.67 129.01"/><path class="cls-1" d="M181,130.71a6.8,6.8,0,0,1,3.27,6.2h-6.41c0-4.58,3.14-6.2,3.14-6.2"/><path class="cls-2" d="M181,130.71l-.18.31s3.1,1.48,3.1,5.89h.35v-.35h-6.41v.35h.35c0-4.41,3-5.85,3-5.89l-.17-.31-.18.31.18-.31-.18-.31s-3.31,1.75-3.31,6.51v.35h7.11v-.35c0-4.76-3.4-6.51-3.49-6.51l-.13-.08-.18.08Z"/><polygon class="cls-1" points="169.15 136.91 192.93 136.91 193.8 137.96 192.93 139 169.15 139 168.24 137.96 169.15 136.91"/><polygon class="cls-2" points="169.15 136.91 169.15 137.25 192.76 137.25 193.37 137.96 192.76 138.66 169.33 138.66 168.67 137.96 169.41 137.12 169.15 136.91 169.15 137.25 169.15 136.91 168.89 136.69 167.98 137.73 167.75 137.96 168.89 139.22 168.98 139.35 192.93 139.35 193.11 139.35 194.06 138.17 194.24 137.96 193.19 136.69 193.11 136.56 169.15 136.56 168.98 136.56 168.89 136.69 169.15 136.91"/><polygon class="cls-1" points="232.64 136.91 255.5 136.91 254.45 128.09 233.6 128.09 232.64 136.91"/><polygon class="cls-2" points="232.64 136.91 232.64 137.25 255.5 137.25 255.9 137.25 254.81 128.05 254.76 127.74 233.6 127.74 233.29 127.74 232.29 136.87 232.25 137.25 232.64 137.25 232.64 136.91 232.99 136.95 233.9 128.44 254.15 128.44 255.11 136.56 232.64 136.56 232.64 136.91 232.99 136.95 232.64 136.91"/><polygon class="cls-1" points="243.98 128.79 249.74 136.91 238.4 136.91 243.98 128.79"/><polygon class="cls-2" points="243.68 129.01 249.09 136.56 239.05 136.56 244.29 129.01 243.68 128.57 238.09 136.69 237.74 137.25 249.74 137.25 250.44 137.25 244.25 128.57 243.72 129.01 243.68 129.01"/><path class="cls-1" d="M244,130.71a6.79,6.79,0,0,1,3.32,6.2h-6.46c0-4.58,3.14-6.2,3.14-6.2"/><path class="cls-2" d="M244,130.71l-.13.31a6.36,6.36,0,0,1,3.1,5.89h.35v-.35h-6.46v.35h.35a6.46,6.46,0,0,1,3-5.89l-.18-.31-.13.31.13-.31-.17-.31s-3.32,1.75-3.32,6.51v.35h7.16v-.35a7,7,0,0,0-3.54-6.51l-.13-.08-.17.08Z"/><polygon class="cls-1" points="232.2 136.91 255.94 136.91 256.85 137.96 255.94 139 232.2 139 231.29 137.96 232.2 136.91"/><polygon class="cls-2" points="232.2 136.91 232.2 137.25 255.76 137.25 256.38 137.96 255.76 138.66 232.33 138.66 231.72 137.96 232.46 137.12 232.2 136.91 232.2 137.25 232.2 136.91 231.94 136.69 231.03 137.74 230.81 137.96 231.94 139.22 232.03 139.35 255.94 139.35 256.07 139.35 257.12 138.17 257.29 137.96 256.2 136.69 256.07 136.56 232.2 136.56 232.03 136.56 231.94 136.69 232.2 136.91"/><polygon class="cls-1" points="232.64 203.14 255.5 203.14 254.45 194.28 233.6 194.28 232.64 203.14"/><polygon class="cls-2" points="232.64 203.14 232.64 203.49 255.5 203.49 255.9 203.49 254.81 194.24 254.76 193.94 233.6 193.94 233.29 193.94 232.29 203.1 232.25 203.49 232.64 203.49 232.64 203.14 232.99 203.18 233.9 194.63 254.15 194.63 255.11 202.79 232.64 202.79 232.64 203.14 232.99 203.18 232.64 203.14"/><polygon class="cls-1" points="243.98 195.03 249.74 203.14 238.4 203.14 243.98 195.03"/><polygon class="cls-2" points="243.68 195.24 249.09 202.79 239.05 202.79 244.29 195.24 243.68 194.81 238.09 202.92 237.74 203.49 249.74 203.49 250.4 203.49 244.25 194.81 243.72 195.24 243.68 195.24"/><path class="cls-1" d="M244,196.94a6.72,6.72,0,0,1,3.32,6.2h-6.46c0-4.58,3.14-6.2,3.14-6.2"/><path class="cls-2" d="M244,196.94l-.13.31s3.1,1.44,3.1,5.89h.35v-.35h-6.46v.35h.35a6.46,6.46,0,0,1,3-5.89l-.18-.31-.13.31.13-.31-.17-.3s-3.32,1.74-3.32,6.5v.35h7.16v-.35c0-4.8-3.45-6.5-3.54-6.5l-.13-.09-.17.09Z"/><polygon class="cls-1" points="232.81 190.35 255.37 190.35 256.25 191.32 255.37 192.32 232.81 192.32 231.94 191.32 232.81 190.35"/><polygon class="cls-2" points="232.81 190.35 232.81 190.71 255.2 190.71 255.76 191.32 255.2 191.97 232.99 191.97 232.42 191.32 233.08 190.57 232.81 190.35 232.81 190.71 232.81 190.35 232.55 190.14 231.68 191.1 231.46 191.32 232.55 192.54 232.64 192.67 255.37 192.67 255.54 192.67 256.5 191.54 256.72 191.32 255.63 190.14 255.5 190.01 232.81 190.01 232.64 190.01 232.55 190.14 232.81 190.35"/><polygon class="cls-1" points="232.2 203.14 255.94 203.14 256.85 204.19 255.94 205.19 232.2 205.19 231.29 204.19 232.2 203.14"/><polygon class="cls-2" points="232.2 203.14 232.2 203.49 255.76 203.49 256.38 204.19 255.76 204.84 232.33 204.84 231.76 204.19 232.46 203.36 232.2 203.14 232.2 203.49 232.2 203.14 231.94 202.92 231.03 203.97 230.81 204.19 231.94 205.41 232.03 205.54 255.94 205.54 256.07 205.54 257.12 204.41 257.33 204.19 256.2 202.92 256.07 202.79 232.2 202.79 232.03 202.79 231.94 202.92 232.2 203.14"/><polygon class="cls-1" points="233.25 192.32 254.89 192.32 255.68 193.28 254.89 194.24 233.25 194.24 232.46 193.28 233.25 192.32"/><polygon class="cls-2" points="233.25 192.32 233.25 192.67 254.72 192.67 255.24 193.28 254.72 193.89 233.43 193.89 232.9 193.28 233.51 192.54 233.25 192.32 233.25 192.67 233.25 192.32 232.99 192.1 232.2 193.06 232.03 193.28 232.99 194.46 233.08 194.59 254.89 194.59 255.07 194.59 255.94 193.5 256.11 193.28 255.15 192.1 255.07 191.97 233.25 191.97 233.08 191.97 232.99 192.1 233.25 192.32"/><polygon class="cls-1" points="246.82 181.11 247.21 190.4 241.19 190.31 241.63 181.11 246.82 181.11"/><polygon class="cls-2" points="246.47 181.11 246.86 190.05 241.54 189.97 241.98 181.46 246.82 181.46 246.82 180.76 241.63 180.76 241.28 180.76 240.84 190.31 240.8 190.66 247.21 190.75 247.56 190.75 247.17 181.11 246.47 181.11"/><polygon class="cls-1" points="240.49 177.66 242.15 177.66 242.15 178.88 243.37 178.88 243.37 177.62 245.03 177.62 245.03 178.88 246.3 178.88 246.3 177.62 248 177.62 248 180.41 247.25 181.15 241.23 181.15 240.49 180.41 240.49 177.66"/><polygon class="cls-2" points="240.49 177.66 240.49 178.01 241.8 178.01 241.8 178.88 241.8 179.23 243.37 179.23 243.72 179.23 243.72 177.97 244.68 177.97 244.68 178.88 244.68 179.23 246.3 179.23 246.65 179.23 246.65 177.97 247.65 177.97 247.65 180.28 247.12 180.8 241.37 180.8 240.84 180.28 240.84 177.66 240.49 177.66 240.49 178.01 240.49 177.66 240.14 177.66 240.14 180.41 240.14 180.54 240.97 181.41 241.06 181.5 247.25 181.5 247.38 181.5 248.26 180.67 248.35 180.54 248.35 177.62 248.35 177.27 246.3 177.27 245.95 177.27 245.95 178.53 245.38 178.53 245.38 177.62 245.38 177.27 243.37 177.27 243.02 177.27 243.02 178.53 242.5 178.53 242.5 177.66 242.5 177.31 240.49 177.31 240.14 177.31 240.14 177.66 240.49 177.66"/><rect class="cls-2" x="243.59" y="184.99" width="1.22" height="2.18"/><polygon class="cls-1" points="247.78 182.02 249.48 182.02 249.48 183.25 250.7 183.25 250.7 182.02 252.36 182.02 252.36 183.25 253.58 183.25 253.58 182.02 255.33 182.02 255.33 184.81 254.59 185.51 248.57 185.51 247.78 184.81 247.78 182.02"/><polygon class="cls-2" points="247.78 182.02 247.78 182.37 249.13 182.37 249.13 183.25 249.13 183.6 250.7 183.6 251.05 183.6 251.05 182.37 252.01 182.37 252.01 183.25 252.01 183.6 253.58 183.6 253.93 183.6 253.93 182.37 254.98 182.37 254.98 184.69 254.46 185.16 248.57 185.16 248.13 184.69 248.13 182.02 247.78 182.02 247.78 182.37 247.78 182.02 247.43 182.02 247.43 184.81 247.43 184.95 248.35 185.78 254.59 185.86 255.55 185.08 255.68 184.95 255.68 182.02 255.68 181.67 253.58 181.67 253.23 181.67 253.23 182.9 252.71 182.9 252.71 182.02 252.71 181.67 250.7 181.67 250.35 181.67 250.35 182.9 249.83 182.9 249.83 182.02 249.83 181.67 247.78 181.67 247.43 181.67 247.43 182.02 247.78 182.02"/><polygon class="cls-1" points="254.28 185.51 254.41 190.4 248.7 190.4 248.87 185.51 254.28 185.51"/><polygon class="cls-2" points="253.93 185.51 254.06 190.05 249.04 190.05 249.22 185.86 254.28 185.86 254.28 185.16 248.87 185.16 248.52 185.16 248.35 190.4 248.35 190.75 254.41 190.75 254.76 190.75 254.63 185.51 253.93 185.51"/><polygon class="cls-1" points="233.03 182.02 234.69 182.02 234.69 183.25 235.95 183.25 235.95 182.02 237.61 182.02 237.61 183.25 238.83 183.25 238.83 182.02 240.58 182.02 240.58 184.81 239.84 185.51 233.81 185.51 233.03 184.81 233.03 182.02"/><polygon class="cls-2" points="233.03 182.02 233.03 182.37 234.34 182.37 234.34 183.25 234.34 183.6 235.95 183.6 236.31 183.6 236.31 182.37 237.27 182.37 237.27 183.25 237.27 183.6 238.83 183.6 239.19 183.6 239.19 182.37 240.23 182.37 240.23 184.69 239.71 185.16 233.81 185.16 233.38 184.69 233.38 182.02 233.03 182.02 233.03 182.37 233.03 182.02 232.68 182.02 232.68 184.81 232.68 184.95 233.6 185.78 239.84 185.86 240.8 185.08 240.93 184.95 240.93 182.02 240.93 181.67 238.83 181.67 238.49 181.67 238.49 182.9 237.96 182.9 237.96 182.02 237.96 181.67 235.95 181.67 235.6 181.67 235.6 182.9 235.04 182.9 235.04 182.02 235.04 181.67 233.03 181.67 232.68 181.67 232.68 182.02 233.03 182.02"/><polygon class="cls-1" points="239.49 185.51 239.66 190.4 233.95 190.4 234.12 185.51 239.49 185.51"/><polygon class="cls-2" points="239.14 185.51 239.31 190.05 234.3 190.05 234.47 185.86 239.49 185.86 239.49 185.16 234.12 185.16 233.77 185.16 233.6 190.4 233.6 190.75 239.66 190.75 240.01 190.75 239.84 185.51 239.14 185.51"/><rect class="cls-2" x="250.96" y="187.61" width="1.22" height="1.3"/><rect class="cls-2" x="236.22" y="187.61" width="1.18" height="1.3"/><polygon class="cls-1" points="213.31 255.41 229.93 271.12 235.26 264.01 220.07 249.65 213.31 255.41"/><polygon class="cls-2" points="213.31 255.41 213.05 255.68 229.71 271.38 229.97 271.65 235.52 264.23 235.73 263.97 220.29 249.39 220.07 249.17 213.09 255.15 212.78 255.41 213.05 255.68 213.31 255.41 213.53 255.68 220.07 250.14 234.78 264.06 229.89 270.6 213.53 255.15 213.31 255.41 213.53 255.68 213.31 255.41"/><polygon class="cls-1" points="227.14 257.33 225.75 267.15 217.5 259.34 227.14 257.33"/><polygon class="cls-2" points="226.79 257.29 225.48 266.45 218.2 259.56 227.23 257.68 227.06 256.98 217.41 258.99 216.8 259.12 225.53 267.41 226 267.85 227.49 257.38 226.79 257.29"/><polygon class="cls-1" points="225.83 258.73 223.96 265.45 219.28 261.04 225.83 258.73"/><polygon class="cls-2" points="225.83 258.73 225.48 258.64 223.78 264.8 219.94 261.17 225.96 259.03 225.83 258.73 225.48 258.64 225.83 258.73 225.7 258.38 219.16 260.69 218.63 260.91 223.69 265.71 224.13 266.11 226.18 258.82 226.35 258.16 225.7 258.38 225.83 258.73"/><polygon class="cls-1" points="222.25 246.21 238.62 261.78 238.57 263.05 237.27 263.18 220.86 247.65 220.94 246.34 222.25 246.21"/><polygon class="cls-2" points="222.25 246.21 222.03 246.47 238.27 261.92 238.22 262.74 237.39 262.83 221.21 247.51 221.25 246.65 222.3 246.56 222.25 246.21 222.03 246.47 222.25 246.21 222.21 245.86 220.9 245.99 220.64 246.03 220.51 247.6 220.51 247.78 237.05 263.44 237.13 263.53 238.62 263.4 238.92 263.36 238.97 261.78 238.97 261.65 222.47 245.95 222.38 245.86 222.21 245.86 222.25 246.21"/><polygon class="cls-1" points="213 255.11 230.19 271.47 230.19 272.82 228.8 272.95 211.56 256.59 211.61 255.24 213 255.11"/><polygon class="cls-2" points="213 255.11 212.78 255.37 229.84 271.6 229.84 272.52 228.93 272.6 211.91 256.46 211.96 255.54 213.05 255.46 213 255.11 212.78 255.37 213 255.11 212.96 254.76 211.56 254.89 211.26 254.94 211.22 256.59 211.22 256.73 228.58 273.21 228.67 273.3 230.24 273.17 230.54 273.13 230.54 271.47 230.54 271.34 213.22 254.85 213.13 254.76 212.96 254.76 213 255.11"/><polygon class="cls-1" points="221.21 248 236.92 262.83 236.83 264.14 235.56 264.27 219.9 249.39 219.94 248.13 221.21 248"/><polygon class="cls-2" points="221.21 248 220.99 248.26 236.57 262.96 236.48 263.83 235.69 263.92 220.25 249.26 220.29 248.43 221.25 248.35 221.21 248 220.99 248.26 221.21 248 221.16 247.65 219.9 247.78 219.59 247.82 219.55 249.39 219.55 249.52 235.3 264.53 235.43 264.62 236.87 264.49 237.13 264.45 237.27 262.87 237.27 262.7 221.43 247.74 221.34 247.65 221.16 247.65 221.21 248"/><polygon class="cls-1" points="238.75 249.17 232.64 256.11 228.36 252.01 234.99 245.64 238.75 249.17"/><polygon class="cls-2" points="238.49 248.96 232.59 255.59 228.84 252.01 235 246.12 238.53 249.44 238.97 248.91 235.21 245.38 235 245.16 228.1 251.75 227.84 252.01 232.38 256.38 232.64 256.59 239.01 249.39 238.49 248.96"/><polygon class="cls-1" points="236.57 242.28 237.74 243.46 236.91 244.29 237.83 245.16 238.66 244.25 239.88 245.47 239.05 246.34 239.93 247.17 240.8 246.25 242.02 247.47 240.1 249.48 239.05 249.48 234.69 245.38 234.65 244.29 236.57 242.28"/><polygon class="cls-2" points="236.57 242.28 236.31 242.54 237.27 243.46 236.65 244.02 236.44 244.29 237.57 245.42 237.83 245.64 238.66 244.72 239.4 245.47 238.79 246.12 238.57 246.34 239.66 247.43 239.93 247.65 240.8 246.73 241.54 247.47 239.93 249.13 239.05 249.13 235.04 245.25 234.99 244.42 236.83 242.54 236.57 242.28 236.31 242.54 236.57 242.28 236.31 242.02 234.38 244.02 234.3 244.16 234.34 245.38 234.34 245.51 238.79 249.74 238.92 249.83 240.1 249.83 240.23 249.83 242.28 247.69 242.5 247.47 241.06 245.99 240.8 245.77 239.93 246.69 239.53 246.34 240.14 245.68 240.36 245.47 238.92 243.98 238.66 243.72 237.83 244.63 237.39 244.29 238.01 243.72 238.22 243.46 236.83 242.02 236.57 241.8 236.31 242.02 236.57 242.28"/><polygon class="cls-2" points="233.77 249.79 234.6 250.61 233.16 252.19 232.29 251.31 233.77 249.79"/><polygon class="cls-1" points="238.83 250.53 240.06 251.66 239.22 252.53 240.1 253.36 240.93 252.45 242.19 253.63 241.36 254.54 242.24 255.41 243.11 254.5 244.33 255.68 242.41 257.68 241.36 257.73 237 253.58 236.91 252.53 238.83 250.53"/><polygon class="cls-2" points="238.83 250.53 238.62 250.79 239.58 251.66 238.97 252.32 238.75 252.53 239.84 253.63 240.1 253.84 240.93 252.93 241.72 253.63 241.1 254.32 240.88 254.54 241.98 255.68 242.24 255.89 243.11 254.98 243.85 255.68 242.15 257.42 241.49 257.38 237.35 253.41 237.27 252.66 239.1 250.75 238.83 250.53 238.62 250.79 238.83 250.53 238.57 250.26 236.65 252.27 236.57 252.4 236.65 253.63 236.65 253.75 241.15 257.99 241.23 258.08 242.41 258.03 244.6 255.89 244.81 255.68 243.33 254.24 243.11 254.02 242.24 254.94 241.85 254.54 242.46 253.84 242.68 253.58 241.15 252.19 240.88 251.97 240.06 252.89 239.71 252.53 240.32 251.88 240.54 251.62 239.05 250.26 238.83 250.05 238.57 250.26 238.83 250.53"/><polygon class="cls-1" points="241.1 257.51 237.92 261.08 233.77 257.16 237.18 253.75 241.1 257.51"/><polygon class="cls-2" points="240.84 257.29 237.87 260.61 234.25 257.16 237.18 254.24 240.84 257.77 241.37 257.24 237.39 253.49 237.18 253.28 233.51 256.9 233.29 257.16 237.66 261.35 237.92 261.57 241.37 257.73 240.84 257.29"/><polygon class="cls-1" points="228.14 240.36 229.32 241.5 228.54 242.41 229.41 243.2 230.24 242.32 231.5 243.5 230.63 244.42 231.5 245.25 232.38 244.33 233.6 245.51 231.68 247.56 230.63 247.56 226.31 243.42 226.22 242.37 228.14 240.36"/><polygon class="cls-2" points="228.14 240.36 227.88 240.62 228.84 241.5 228.28 242.19 228.06 242.46 229.19 243.46 229.41 243.67 230.24 242.81 231.03 243.5 230.37 244.2 230.15 244.42 231.29 245.51 231.5 245.72 232.38 244.81 233.12 245.51 231.5 247.21 230.76 247.21 226.66 243.24 226.57 242.5 228.41 240.62 228.14 240.36 227.88 240.62 228.14 240.36 227.88 240.1 225.96 242.11 225.88 242.24 225.96 243.46 225.96 243.55 230.37 247.82 230.5 247.91 231.68 247.91 231.81 247.91 233.86 245.72 234.08 245.51 232.59 244.07 232.38 243.85 231.5 244.77 231.11 244.42 231.76 243.72 231.98 243.5 230.46 242.06 230.24 241.84 229.37 242.72 229.02 242.37 229.59 241.71 229.8 241.45 228.41 240.1 228.14 239.88 227.88 240.1 228.14 240.36"/><polygon class="cls-1" points="230.41 247.34 227.23 250.96 223.04 247.03 226.49 243.63 230.41 247.34"/><polygon class="cls-2" points="230.15 247.12 227.19 250.44 223.52 247.03 226.49 244.11 230.15 247.6 230.68 247.08 226.7 243.37 226.49 243.15 222.78 246.78 222.56 247.03 227.01 251.22 227.23 251.44 230.68 247.56 230.15 247.12"/><polygon class="cls-2" points="237.27 256.73 238.14 257.59 237.27 258.51 236.39 257.68 237.27 256.73"/><polygon class="cls-2" points="226.57 246.6 227.45 247.43 226.57 248.35 225.7 247.56 226.57 246.6"/><polygon class="cls-1" points="149.65 255.41 133.02 271.12 127.7 264.01 142.84 249.65 149.65 255.41"/><polygon class="cls-2" points="149.65 255.41 149.43 255.15 133.07 270.6 128.18 264.06 142.84 250.13 149.43 255.68 149.65 255.41 149.43 255.15 149.65 255.41 149.87 255.15 143.06 249.39 142.84 249.17 127.44 263.75 127.22 263.97 132.76 271.34 132.98 271.65 149.87 255.68 150.17 255.41 149.87 255.15 149.65 255.41"/><polygon class="cls-1" points="135.82 257.33 137.21 267.15 145.42 259.34 135.82 257.33"/><polygon class="cls-2" points="135.47 257.38 136.86 267.2 136.95 267.85 145.63 259.6 146.11 259.12 135.91 256.98 135.73 257.68 144.68 259.56 137.47 266.45 136.17 257.29 135.47 257.38"/><polygon class="cls-1" points="137.08 258.73 139 265.45 143.63 261.04 137.08 258.73"/><polygon class="cls-2" points="137.08 258.73 136.73 258.82 138.65 265.54 138.83 266.11 143.85 261.31 144.28 260.91 137.21 258.38 136.56 258.17 136.73 258.82 137.08 258.73 136.95 259.03 142.97 261.17 139.18 264.8 137.43 258.64 137.08 258.73 136.95 259.03 137.08 258.73"/><polygon class="cls-1" points="140.75 246.21 124.34 261.78 124.39 263.05 125.65 263.18 142.06 247.65 142.01 246.34 140.75 246.21"/><polygon class="cls-2" points="140.75 246.21 140.53 245.95 124.12 261.52 123.99 261.65 124.04 263.05 124.04 263.36 125.6 263.53 125.78 263.53 142.27 247.91 142.41 247.78 142.36 246.34 142.36 246.03 140.79 245.86 140.62 245.86 140.53 245.95 140.75 246.21 140.7 246.56 141.66 246.65 141.71 247.51 125.52 262.83 124.73 262.75 124.69 261.92 140.96 246.47 140.75 246.21 140.7 246.56 140.75 246.21"/><polygon class="cls-1" points="149.95 255.11 132.72 271.47 132.76 272.83 134.12 272.95 151.4 256.59 151.31 255.24 149.95 255.11"/><polygon class="cls-2" points="149.95 255.11 149.69 254.85 132.5 271.21 132.37 271.34 132.41 272.83 132.41 273.13 134.07 273.3 134.25 273.3 151.61 256.85 151.74 256.73 151.66 255.19 151.61 254.94 150 254.76 149.82 254.76 149.69 254.85 149.95 255.11 149.91 255.46 150.96 255.54 151.04 256.46 133.98 272.6 133.11 272.52 133.07 271.6 150.17 255.37 149.95 255.11 149.91 255.46 149.95 255.11"/><polygon class="cls-1" points="141.71 248 126.04 262.83 126.09 264.14 127.39 264.27 143.06 249.39 142.97 248.13 141.71 248"/><polygon class="cls-2" points="141.71 248 141.49 247.74 125.78 262.57 125.69 262.7 125.74 264.14 125.74 264.45 127.35 264.62 127.53 264.62 143.28 249.65 143.41 249.52 143.32 248.08 143.28 247.82 141.75 247.65 141.58 247.65 141.49 247.74 141.71 248 141.66 248.35 142.62 248.44 142.71 249.26 127.26 263.92 126.44 263.83 126.39 262.96 141.93 248.26 141.71 248 141.66 248.35 141.71 248"/><polygon class="cls-1" points="124.17 249.17 130.28 256.11 134.59 252.01 127.96 245.64 124.17 249.17"/><polygon class="cls-2" points="123.9 249.39 130.01 256.33 130.23 256.59 134.81 252.27 135.12 252.01 128.22 245.38 127.96 245.16 123.95 248.91 124.39 249.44 127.96 246.12 134.07 252.01 130.28 255.63 124.43 248.96 123.9 249.39"/><polygon class="cls-1" points="126.39 242.28 125.21 243.46 126 244.29 125.13 245.16 124.3 244.25 123.03 245.47 123.9 246.34 123.03 247.17 122.16 246.25 120.94 247.47 122.86 249.48 123.9 249.48 128.22 245.38 128.27 244.29 126.39 242.28"/><polygon class="cls-2" points="126.39 242.28 126.13 242.02 124.95 243.2 124.73 243.46 125.52 244.29 125.13 244.63 124.56 244.02 124.3 243.76 122.77 245.21 122.55 245.47 123.43 246.34 123.03 246.69 122.42 246.03 122.16 245.77 120.68 247.21 120.46 247.47 122.6 249.7 122.73 249.83 123.9 249.83 124.04 249.83 128.44 245.64 128.58 245.51 128.62 244.29 128.62 244.16 126.66 242.02 126.39 241.76 126.13 242.02 126.39 242.28 126.13 242.5 127.92 244.42 127.88 245.21 123.77 249.13 122.99 249.13 121.42 247.47 122.16 246.73 122.77 247.38 123.03 247.65 124.12 246.6 124.39 246.34 123.51 245.47 124.3 244.72 124.87 245.38 125.13 245.68 126.26 244.55 126.48 244.29 125.69 243.46 126.66 242.54 126.39 242.28 126.13 242.5 126.39 242.28"/><polygon class="cls-2" points="129.19 249.79 128.35 250.61 129.79 252.19 130.67 251.31 129.19 249.79"/><polygon class="cls-1" points="124.08 250.53 122.9 251.66 123.73 252.54 122.86 253.36 121.99 252.45 120.76 253.63 121.59 254.54 120.72 255.41 119.85 254.5 118.63 255.68 120.55 257.68 121.55 257.73 125.91 253.58 126 252.54 124.08 250.53"/><polygon class="cls-2" points="124.08 250.53 123.82 250.26 122.64 251.4 122.42 251.66 123.25 252.54 122.86 252.88 122.25 252.23 121.99 251.97 120.5 253.36 120.29 253.63 121.11 254.54 120.72 254.94 120.11 254.24 119.85 254.02 118.36 255.41 118.14 255.68 120.29 257.9 120.37 258.03 121.55 258.08 121.68 258.08 126.13 253.84 126.26 253.75 126.35 252.58 126.35 252.4 124.34 250.26 124.08 250.05 123.82 250.26 124.08 250.53 123.82 250.75 125.65 252.67 125.56 253.41 121.42 257.38 120.72 257.33 119.11 255.68 119.85 254.98 120.46 255.63 120.72 255.89 121.86 254.8 122.07 254.54 121.24 253.63 121.99 252.93 122.6 253.58 122.86 253.84 123.95 252.8 124.21 252.54 123.38 251.66 124.3 250.79 124.08 250.53 123.82 250.75 124.08 250.53"/><polygon class="cls-1" points="121.81 257.51 125 261.08 129.19 257.16 125.74 253.75 121.81 257.51"/><polygon class="cls-2" points="121.55 257.73 124.73 261.31 124.95 261.57 129.4 257.42 129.67 257.16 126 253.49 125.74 253.28 121.55 257.24 122.07 257.77 125.74 254.24 128.66 257.16 125 260.61 122.07 257.29 121.55 257.73"/><polygon class="cls-1" points="134.81 240.36 133.59 241.5 134.42 242.41 133.5 243.2 132.72 242.32 131.45 243.5 132.28 244.42 131.41 245.25 130.54 244.33 129.32 245.51 131.23 247.56 132.28 247.56 136.65 243.42 136.69 242.37 134.81 240.36"/><polygon class="cls-2" points="134.81 240.36 134.59 240.1 133.37 241.23 133.11 241.45 133.94 242.37 133.55 242.72 132.98 242.1 132.72 241.84 131.23 243.24 130.97 243.46 131.8 244.37 131.41 244.77 130.8 244.11 130.54 243.85 129.06 245.25 128.84 245.51 130.97 247.78 131.06 247.91 132.28 247.91 132.41 247.91 136.86 243.68 137 243.59 137.04 242.37 137.04 242.24 135.08 240.1 134.81 239.88 134.59 240.1 134.81 240.36 134.55 240.58 136.34 242.5 136.3 243.24 132.15 247.21 131.37 247.21 129.79 245.51 130.54 244.81 131.15 245.47 131.41 245.72 132.5 244.68 132.76 244.42 131.93 243.5 132.67 242.81 133.24 243.42 133.46 243.68 134.64 242.67 134.9 242.46 134.07 241.5 135.03 240.62 134.81 240.36 134.55 240.58 134.81 240.36"/><polygon class="cls-1" points="132.55 247.34 135.73 250.96 139.88 247.04 136.43 243.63 132.55 247.34"/><polygon class="cls-2" points="132.28 247.56 135.47 251.18 135.69 251.44 140.1 247.3 140.35 247.04 136.69 243.37 136.43 243.15 132.28 247.08 132.8 247.6 136.43 244.11 139.39 247.04 135.73 250.48 132.8 247.12 132.28 247.56"/><polygon class="cls-2" points="125.65 256.73 124.78 257.59 125.65 258.51 126.52 257.68 125.65 256.73"/><polygon class="cls-2" points="136.34 246.6 135.51 247.43 136.38 248.35 137.26 247.56 136.34 246.6"/><polygon class="cls-1" points="106.54 136.91 129.4 136.91 128.35 128.09 107.5 128.09 106.54 136.91"/><polygon class="cls-2" points="106.54 136.91 106.54 137.25 129.4 137.25 129.79 137.25 128.71 128.05 128.66 127.74 107.5 127.74 107.19 127.74 106.19 136.87 106.15 137.25 106.54 137.25 106.54 136.91 106.89 136.95 107.81 128.44 128.05 128.44 129.01 136.56 106.54 136.56 106.54 136.91 106.89 136.95 106.54 136.91"/><polygon class="cls-1" points="117.88 128.79 123.64 136.91 112.3 136.91 117.88 128.79"/><polygon class="cls-2" points="117.58 129.01 122.99 136.56 112.95 136.56 118.19 129.01 117.58 128.57 111.99 136.69 111.65 137.25 123.64 137.25 124.34 137.25 118.14 128.57 117.62 129.01 117.58 129.01"/><path class="cls-1" d="M117.93,130.71a6.8,6.8,0,0,1,3.27,6.2h-6.46a6.82,6.82,0,0,1,3.19-6.2"/><path class="cls-2" d="M117.93,130.71l-.18.31a6.36,6.36,0,0,1,3.1,5.89h.35v-.35h-6.46v.35h.35a6.45,6.45,0,0,1,3-5.89l-.17-.31-.18.31.18-.31-.18-.31s-3.36,1.75-3.36,6.51v.35h7.16v-.35a7.14,7.14,0,0,0-3.45-6.51l-.17-.08-.18.08Z"/><polygon class="cls-1" points="106.1 136.91 129.88 136.91 130.8 137.96 129.88 139 106.1 139 105.19 137.96 106.1 136.91"/><polygon class="cls-2" points="106.1 136.91 106.1 137.25 129.71 137.25 130.32 137.96 129.71 138.66 106.23 138.66 105.62 137.96 106.36 137.12 106.1 136.91 106.1 137.25 106.1 136.91 105.84 136.69 104.92 137.73 104.71 137.96 105.84 139.22 105.93 139.35 129.88 139.35 130.06 139.35 131.06 138.17 131.28 137.96 130.15 136.69 130.06 136.56 106.1 136.56 105.93 136.56 105.84 136.69 106.1 136.91"/><polygon class="cls-1" points="106.54 203.14 129.4 203.14 128.35 194.28 107.5 194.28 106.54 203.14"/><polygon class="cls-2" points="106.54 203.14 106.54 203.49 129.4 203.49 129.79 203.49 128.71 194.24 128.66 193.94 107.5 193.94 107.19 193.94 106.19 203.1 106.15 203.49 106.54 203.49 106.54 203.14 106.89 203.18 107.81 194.63 128.05 194.63 129.01 202.79 106.54 202.79 106.54 203.14 106.89 203.18 106.54 203.14"/><polygon class="cls-1" points="117.88 195.03 123.64 203.14 112.3 203.14 117.88 195.03"/><polygon class="cls-2" points="117.58 195.24 122.99 202.79 112.95 202.79 118.19 195.24 117.58 194.81 111.99 202.92 111.65 203.49 123.64 203.49 124.3 203.49 118.14 194.81 117.62 195.24 117.58 195.24"/><path class="cls-1" d="M117.93,196.94a6.73,6.73,0,0,1,3.27,6.2h-6.46a6.82,6.82,0,0,1,3.19-6.2"/><path class="cls-2" d="M117.93,196.94l-.18.31s3.1,1.44,3.1,5.89h.35v-.35h-6.46v.35h.35a6.45,6.45,0,0,1,3-5.89l-.17-.31-.18.31.18-.31-.18-.3s-3.36,1.74-3.36,6.5v.35h7.16v-.35a7,7,0,0,0-3.49-6.5l-.13-.09-.18.09Z"/><polygon class="cls-1" points="106.71 190.35 129.27 190.35 130.15 191.32 129.27 192.32 106.71 192.32 105.84 191.32 106.71 190.35"/><polygon class="cls-2" points="106.71 190.35 106.71 190.7 129.09 190.7 129.67 191.32 129.09 191.97 106.89 191.97 106.32 191.32 106.97 190.57 106.71 190.35 106.71 190.7 106.71 190.35 106.45 190.14 105.58 191.1 105.36 191.32 106.45 192.54 106.54 192.67 129.27 192.67 129.45 192.67 130.41 191.54 130.63 191.32 129.53 190.14 129.4 190.01 106.71 190.01 106.54 190.01 106.45 190.14 106.71 190.35"/><polygon class="cls-1" points="106.1 203.14 129.88 203.14 130.8 204.19 129.88 205.19 106.1 205.19 105.19 204.19 106.1 203.14"/><polygon class="cls-2" points="106.1 203.14 106.1 203.49 129.71 203.49 130.32 204.19 129.71 204.84 106.23 204.84 105.67 204.19 106.36 203.36 106.1 203.14 106.1 203.49 106.1 203.14 105.84 202.92 104.92 203.97 104.71 204.19 105.84 205.41 105.93 205.54 129.88 205.54 130.06 205.54 131.06 204.41 131.28 204.19 130.15 202.92 130.06 202.79 106.1 202.79 105.93 202.79 105.84 202.92 106.1 203.14"/><polygon class="cls-1" points="107.19 192.32 128.79 192.32 129.62 193.28 128.79 194.24 107.19 194.24 106.36 193.28 107.19 192.32"/><polygon class="cls-2" points="107.19 192.32 107.19 192.67 128.62 192.67 129.14 193.28 128.62 193.89 107.37 193.89 106.84 193.28 107.46 192.54 107.19 192.32 107.19 192.67 107.19 192.32 106.93 192.1 106.1 193.06 105.89 193.28 106.93 194.46 107.02 194.59 128.79 194.59 128.97 194.59 129.88 193.5 130.06 193.28 129.05 192.1 128.97 191.97 107.19 191.97 107.02 191.97 106.93 192.1 107.19 192.32"/><polygon class="cls-1" points="120.76 181.11 121.11 190.4 115.09 190.31 115.53 181.11 120.76 181.11"/><polygon class="cls-2" points="120.42 181.11 120.76 190.05 115.44 189.96 115.88 181.46 120.76 181.46 120.76 180.76 115.53 180.76 115.18 180.76 114.74 190.31 114.7 190.66 121.11 190.75 121.46 190.75 121.11 181.11 120.42 181.11"/><polygon class="cls-1" points="114.39 177.66 116.05 177.66 116.05 178.88 117.27 178.88 117.27 177.62 118.98 177.62 118.98 178.88 120.2 178.88 120.2 177.62 121.9 177.62 121.9 180.41 121.16 181.15 115.18 181.15 114.39 180.41 114.39 177.66"/><polygon class="cls-2" points="114.39 177.66 114.39 178.01 115.7 178.01 115.7 178.88 115.7 179.23 117.27 179.23 117.62 179.23 117.62 177.97 118.63 177.97 118.63 178.88 118.63 179.23 120.2 179.23 120.55 179.23 120.55 177.97 121.55 177.97 121.55 180.28 121.03 180.8 115.31 180.8 114.74 180.23 114.74 177.66 114.39 177.66 114.39 178.01 114.39 177.66 114.04 177.66 114.04 180.41 114.04 180.54 114.96 181.41 115.05 181.5 121.16 181.5 121.29 181.5 122.16 180.67 122.25 180.54 122.25 177.62 122.25 177.27 120.2 177.27 119.85 177.27 119.85 178.53 119.32 178.53 119.32 177.62 119.32 177.27 117.27 177.27 116.92 177.27 116.92 178.53 116.4 178.53 116.4 177.66 116.4 177.31 114.39 177.31 114.04 177.31 114.04 177.66 114.39 177.66"/><rect class="cls-2" x="117.53" y="184.99" width="1.18" height="2.18"/><polygon class="cls-1" points="121.68 182.02 123.38 182.02 123.38 183.25 124.6 183.25 124.6 182.02 126.31 182.02 126.31 183.25 127.53 183.25 127.53 182.02 129.23 182.02 129.23 184.81 128.49 185.51 122.47 185.51 121.68 184.81 121.68 182.02"/><polygon class="cls-2" points="121.68 182.02 121.68 182.37 123.03 182.37 123.03 183.25 123.03 183.6 124.6 183.6 124.95 183.6 124.95 182.37 125.95 182.37 125.95 183.25 125.95 183.6 127.53 183.6 127.88 183.6 127.88 182.37 128.88 182.37 128.88 184.69 128.36 185.16 122.47 185.16 122.03 184.69 122.03 182.02 121.68 182.02 121.68 182.37 121.68 182.02 121.33 182.02 121.33 184.81 121.33 184.95 122.25 185.78 128.49 185.86 128.62 185.86 129.45 185.08 129.58 184.95 129.58 182.02 129.58 181.67 127.53 181.67 127.18 181.67 127.18 182.9 126.66 182.9 126.66 182.02 126.66 181.67 124.6 181.67 124.25 181.67 124.25 182.9 123.73 182.9 123.73 182.02 123.73 181.67 121.68 181.67 121.33 181.67 121.33 182.02 121.68 182.02"/><polygon class="cls-1" points="128.14 185.51 128.36 190.4 122.6 190.4 122.77 185.51 128.14 185.51"/><polygon class="cls-2" points="127.79 185.51 128.01 190.05 122.95 190.05 123.12 185.86 128.14 185.86 128.14 185.16 122.77 185.16 122.42 185.16 122.25 190.4 122.25 190.75 128.35 190.75 128.71 190.75 128.49 185.51 127.79 185.51"/><polygon class="cls-1" points="106.97 182.02 108.63 182.02 108.63 183.25 109.85 183.25 109.85 182.02 111.56 182.02 111.56 183.25 112.78 183.25 112.78 182.02 114.48 182.02 114.48 184.81 113.74 185.51 107.72 185.51 106.97 184.81 106.97 182.02"/><polygon class="cls-2" points="106.97 182.02 106.97 182.37 108.28 182.37 108.28 183.25 108.28 183.6 109.85 183.6 110.2 183.6 110.2 182.37 111.21 182.37 111.21 183.25 111.21 183.6 112.78 183.6 113.13 183.6 113.13 182.37 114.13 182.37 114.13 184.69 113.61 185.16 107.85 185.16 107.33 184.69 107.33 182.02 106.97 182.02 106.97 182.37 106.97 182.02 106.63 182.02 106.63 184.81 106.63 184.95 107.46 185.78 107.59 185.86 113.74 185.86 113.87 185.86 114.7 185.08 114.83 184.95 114.83 182.02 114.83 181.67 112.78 181.67 112.43 181.67 112.43 182.9 111.91 182.9 111.91 182.02 111.91 181.67 109.85 181.67 109.51 181.67 109.51 182.9 108.98 182.9 108.98 182.02 108.98 181.67 106.97 181.67 106.63 181.67 106.63 182.02 106.97 182.02"/><polygon class="cls-1" points="113.39 185.51 113.61 190.4 107.85 190.4 108.02 185.51 113.39 185.51"/><polygon class="cls-2" points="113.04 185.51 113.26 190.05 108.2 190.05 108.37 185.86 113.39 185.86 113.39 185.16 108.02 185.16 107.67 185.16 107.5 190.4 107.5 190.75 113.61 190.75 113.96 190.75 113.74 185.51 113.04 185.51"/><rect class="cls-2" x="124.87" y="187.61" width="1.22" height="1.31"/><rect class="cls-2" x="110.12" y="187.61" width="1.22" height="1.31"/></g></g></svg>