<svg xmlns="http://www.w3.org/2000/svg" role="img" viewBox="71.00 -3.99 207.74 207.74"><defs><clipPath id="clip-path" transform="translate(75)"><circle cx="100" cy="100" r="100" fill="none"/></clipPath><style>.cls-3{fill:#da0000}.cls-4{fill:#fff}</style></defs><g id="Ebene_2" data-name="Ebene 2"><g id="ARTWORK"><g id="ROUND"><g clip-path="url(#clip-path)" id="FLAGS"><path id="red" d="M0 133.33h350V200H0z" class="cls-3"/><path id="white" d="M0 66.67h350v66.67H0z" class="cls-4"/><path id="green" fill="#188e34" d="M0 0h350v66.67H0z"/><path d="M161.77 60.17h4.75v3.11h7.66v-4.57h-4.56v1.46h3.1v1.66h-4.75v-3.12h-7.65v4.57h1.45v-3.11zm26.46 1.66h-1.65V55.6h-1.45v6.23h-1.65V55.6h-1.45v3.11h-6.21v4.57h4.56v-1.45h-3.1v-1.66h4.75v3.11h7.65V55.6h-1.45v6.23z" class="cls-4"/><path d="M160.32 55.6h20.06v1.45h-20.06zm15.5 9.67h13.86v1.45h-13.86zm-15.5 0h13.86v1.45h-13.86zm32.46-5.1h4.75v3.11h7.65v-4.57h-4.55v1.46h3.1v1.66h-4.75v-3.12h-7.65v4.57h1.45v-3.11zm26.45 1.66h-1.64V55.6h-1.46v6.23h-1.64V55.6h-1.46v3.11h-6.2v4.57h4.55v-1.45h-3.1v-1.66h4.75v3.11h7.66V55.6h-1.46v6.23z" class="cls-4"/><path d="M191.33 55.6h20.06v1.45h-20.06zm15.5 9.67h13.86v1.45h-13.86zm-15.5 0h13.86v1.45h-13.86zm-91.57-5.1h4.75v3.11h7.65v-4.57h-4.55v1.46h3.1v1.66h-4.75v-3.12H98.3v4.57h1.46v-3.11zm26.45 1.66h-1.65V55.6h-1.45v6.23h-1.65V55.6h-1.45v3.11h-6.2v4.57h4.55v-1.45h-3.1v-1.66h4.75v3.11h7.65V55.6h-1.45v6.23z" class="cls-4"/><path d="M98.3 55.6h20.06v1.45H98.3zm0 9.67h13.86v1.45H98.3zm15.51 0h13.86v1.45h-13.86zm15.5-9.67h20.06v1.45h-20.06zm1.46 4.57h4.74v3.11h7.66v-4.57h-4.56v1.46h3.11v1.66h-4.75v-3.12h-7.66v4.57h1.46v-3.11z" class="cls-4"/><path d="M157.22 61.83h-1.65V55.6h-1.45v6.23h-1.65V55.6h-1.45v3.11h-6.2v4.57h4.55v-1.45h-3.1v-1.66h4.75v3.11h7.65V55.6h-1.45v6.23zm-12.4 3.44h13.86v1.45h-13.86zm-15.51 0h13.86v1.45h-13.86zm156.49-5.1h4.75v3.11h7.66v-4.57h-4.56v1.46h3.1v1.66h-4.74v-3.12h-7.66v4.57h1.45v-3.11zm-1.45-4.57h20.06v1.45h-20.06z" class="cls-4"/><path d="M312.26 61.83h-1.65V55.6h-1.45v6.23h-1.65V55.6h-1.45v3.11h-6.21v4.57h4.56v-1.45h-3.1v-1.66h4.75v3.11h7.65V55.6h-1.45v6.23zm-27.91 3.44h13.86v1.45h-13.86zm15.5 0h13.86v1.45h-13.86zm16.96-5.1h4.75v3.11h7.65v-4.57h-4.55v1.46h3.1v1.66h-4.75v-3.12h-7.65v4.57h1.45v-3.11zm26.45-4.57v6.23h-1.64V55.6h-1.46v6.23h-1.64V55.6h-1.46v3.11h-6.2v4.57h4.56v-1.45h-3.11v-1.66h4.75v3.11h7.66V55.6h-1.46z" class="cls-4"/><path d="M315.36 55.6h20.06v1.45h-20.06zm0 9.67h13.86v1.45h-13.86zm15.5 0h13.86v1.45h-13.86zM222.34 55.6h20.06v1.45h-20.06zm1.45 4.57h4.75v3.11h7.65v-4.57h-4.55v1.46h3.1v1.66h-4.75v-3.12h-7.65v4.57h1.45v-3.11z" class="cls-4"/><path d="M250.24 61.83h-1.65V55.6h-1.45v6.23h-1.65V55.6h-1.45v3.11h-6.2v4.57h4.55v-1.45h-3.1v-1.66h4.75v3.11h7.66V55.6h-1.46v6.23zm-12.4 3.44h13.86v1.45h-13.86zm-15.5 0h13.86v1.45h-13.86zm32.46-5.1h4.75v3.11h7.65v-4.57h-4.56v1.46h3.11v1.66H261v-3.12h-7.66v4.57h1.46v-3.11zm26.45 1.66h-1.65V55.6h-1.45v6.23h-1.65V55.6h-1.45v3.11h-6.2v4.57h4.55v-1.45h-3.1v-1.66h4.75v3.11h7.65V55.6h-1.45v6.23z" class="cls-4"/><path d="M253.34 55.6h20.06v1.45h-20.06zm15.51 9.67h13.86v1.45h-13.86zm-15.51 0h13.86v1.45h-13.86zm-184.59-5.1h4.75v3.11h7.65v-4.57H76.6v1.46h3.1v1.66h-4.75v-3.12H67.3v4.57h1.45v-3.11zm26.45 1.66h-1.64V55.6H92.1v6.23h-1.65V55.6H89v3.11h-6.2v4.57h4.56v-1.45h-3.11v-1.66H89v3.11h7.66V55.6H95.2v6.23z" class="cls-4"/><path d="M67.3 55.6h20.06v1.45H67.3zm15.5 9.67h13.86v1.45H82.8zm-15.5 0h13.86v1.45H67.3zm-34.11-3.44h-1.65V55.6h-1.45v6.23h-1.65V55.6h-1.45v3.11h-6.2v4.57h4.55v-1.45h-3.1v-1.66h4.75v3.11h7.65V55.6h-1.45v6.23zM6.73 60.17h4.75v3.11h7.66v-4.57h-4.56v1.46h3.1v1.66h-4.74v-3.12H5.28v4.57h1.45v-3.11z" class="cls-4"/><path d="M5.28 55.6h20.06v1.45H5.28zm15.5 9.67h13.86v1.45H20.78zm-15.5 0h13.86v1.45H5.28zm58.92-3.44h-1.65V55.6h-1.46v6.23h-1.64V55.6h-1.46v3.11h-6.2v4.57h4.56v-1.45h-3.1v-1.66h4.74v3.11h7.66V55.6H64.2v6.23z" class="cls-4"/><path d="M36.29 55.6h20.06v1.45H36.29zm1.45 4.57h4.75v3.11h7.66v-4.57h-4.56v1.46h3.1v1.66h-4.75v-3.12h-7.65v4.57h1.45v-3.11zm-1.45 5.1h13.86v1.45H36.29zm15.5 0h13.86v1.45H51.79zm108.53 71.45h20.06v1.45h-20.06z" class="cls-4"/><path d="M188.23 142.94h-1.65v-6.22h-1.45v6.22h-1.65v-6.22h-1.45v3.11h-6.21v4.57h4.56v-1.46h-3.1v-1.65h4.75v3.11h7.65v-7.68h-1.45v6.22zm-18.61-1.65h3.1v1.65h-4.75v-3.11h-7.65v4.57h1.45v-3.11h4.75v3.11h7.66v-4.57h-4.56v1.46zm-9.3-8.01h13.86v1.45h-13.86zm15.5 0h13.86v1.45h-13.86zm24.81 8.01h3.1v1.65h-4.75v-3.11h-7.65v4.57h1.45v-3.11h4.75v3.11h7.65v-4.57h-4.55v1.46zm18.6 1.65h-1.64v-6.22h-1.46v6.22h-1.64v-6.22h-1.46v3.11h-6.2v4.57h4.55v-1.46h-3.1v-1.65h4.75v3.11h7.66v-7.68h-1.46v6.22z" class="cls-4"/><path d="M191.33 136.72h20.06v1.45h-20.06zm0-3.44h13.86v1.45h-13.86zm15.5 0h13.86v1.45h-13.86zm-80.62 9.66h-1.65v-6.22h-1.45v6.22h-1.65v-6.22h-1.45v3.11h-6.2v4.57h4.55v-1.46h-3.1v-1.65h4.75v3.11h7.65v-7.68h-1.45v6.22zm-18.6-1.65h3.1v1.65h-4.75v-3.11H98.3v4.57h1.46v-3.11h4.75v3.11h7.65v-4.57h-4.55v1.46z" class="cls-4"/><path d="M98.3 136.72h20.06v1.45H98.3zm0-3.44h13.86v1.45H98.3zm15.51 0h13.86v1.45h-13.86zm24.8 8.01h3.11v1.65h-4.75v-3.11h-7.66v4.57h1.46v-3.11h4.74v3.11h7.66v-4.57h-4.56v1.46zm18.61 1.65h-1.65v-6.22h-1.45v6.22h-1.65v-6.22h-1.45v3.11h-6.2v4.57h4.55v-1.46h-3.1v-1.65h4.75v3.11h7.65v-7.68h-1.45v6.22z" class="cls-4"/><path d="M129.31 136.72h20.06v1.45h-20.06zm15.51-3.44h13.86v1.45h-13.86zm-15.51 0h13.86v1.45h-13.86zm182.95 9.66h-1.65v-6.22h-1.45v6.22h-1.65v-6.22h-1.45v3.11h-6.21v4.57h4.56v-1.46h-3.1v-1.65h4.75v3.11h7.65v-7.68h-1.45v6.22z" class="cls-4"/><path d="M284.35 136.72h20.06v1.45h-20.06zm9.3 4.57h3.1v1.65h-4.74v-3.11h-7.66v4.57h1.45v-3.11h4.75v3.11h7.66v-4.57h-4.56v1.46zm-9.3-8.01h13.86v1.45h-13.86zm15.5 0h13.86v1.45h-13.86zm15.51 3.44h20.06v1.45h-20.06z" class="cls-4"/><path d="M343.26 142.94h-1.64v-6.22h-1.46v6.22h-1.64v-6.22h-1.46v3.11h-6.2v4.57h4.56v-1.46h-3.11v-1.65h4.75v3.11h7.66v-7.68h-1.46v6.22zm-18.6-1.65h3.1v1.65h-4.75v-3.11h-7.65v4.57h1.45v-3.11h4.75v3.11h7.65v-4.57h-4.55v1.46zm6.2-8.01h13.86v1.45h-13.86zm-15.5 0h13.86v1.45h-13.86zm-93.02 3.44h20.06v1.45h-20.06z" class="cls-4"/><path d="M250.24 142.94h-1.65v-6.22h-1.45v6.22h-1.65v-6.22h-1.45v3.11h-6.2v4.57h4.55v-1.46h-3.1v-1.65h4.75v3.11h7.66v-7.68h-1.46v6.22zm-18.6-1.65h3.1v1.65h-4.75v-3.11h-7.65v4.57h1.45v-3.11h4.75v3.11h7.65v-4.57h-4.55v1.46zm-9.3-8.01h13.86v1.45h-13.86zm15.5 0h13.86v1.45h-13.86zm24.8 8.01h3.11v1.65H261v-3.11h-7.66v4.57h1.46v-3.11h4.75v3.11h7.65v-4.57h-4.56v1.46zm18.61 1.65h-1.65v-6.22h-1.45v6.22h-1.65v-6.22h-1.45v3.11h-6.2v4.57h4.55v-1.46h-3.1v-1.65h4.75v3.11h7.65v-7.68h-1.45v6.22z" class="cls-4"/><path d="M253.34 136.72h20.06v1.45h-20.06zm0-3.44h13.86v1.45h-13.86zm15.51 0h13.86v1.45h-13.86zM95.2 142.94h-1.64v-6.22H92.1v6.22h-1.65v-6.22H89v3.11h-6.2v4.57h4.56v-1.46h-3.11v-1.65H89v3.11h7.66v-7.68H95.2v6.22zm-18.6-1.65h3.1v1.65h-4.75v-3.11H67.3v4.57h1.45v-3.11h4.75v3.11h7.65v-4.57H76.6v1.46z" class="cls-4"/><path d="M67.3 136.72h20.06v1.45H67.3zm0-3.44h13.86v1.45H67.3zm15.5 0h13.86v1.45H82.8zm-68.22 8.01h3.1v1.65h-4.74v-3.11H5.28v4.57h1.45v-3.11h4.75v3.11h7.66v-4.57h-4.56v1.46zm18.61 1.65h-1.65v-6.22h-1.45v6.22h-1.65v-6.22h-1.45v3.11h-6.2v4.57h4.55v-1.46h-3.1v-1.65h4.75v3.11h7.65v-7.68h-1.45v6.22z" class="cls-4"/><path d="M5.28 136.72h20.06v1.45H5.28zm15.5-3.44h13.86v1.45H20.78zm-15.5 0h13.86v1.45H5.28zm31.01 3.44h20.06v1.45H36.29z" class="cls-4"/><path d="M64.2 142.94h-1.65v-6.22h-1.46v6.22h-1.64v-6.22h-1.46v3.11h-6.2v4.57h4.56v-1.46h-3.1v-1.65h4.74v3.11h7.66v-7.68H64.2v6.22zm-18.61-1.65h3.1v1.65h-4.75v-3.11h-7.65v4.57h1.45v-3.11h4.75v3.11h7.66v-4.57h-4.56v1.46zm6.2-8.01h13.86v1.45H51.79zm-15.5 0h13.86v1.45H36.29z" class="cls-4"/><path d="M110.15 82s18 14.14 4.78 34.47c12.48-7.63 13.56-28.68-4.78-34.47zm-20.3 0c-18.34 5.77-17.26 26.82-4.78 34.47C71.82 96.16 89.85 82 89.85 82z" class="cls-3" transform="translate(75)"/><path d="M115.7 99.79c-.7-13.21-7.7-17.23-7.7-17.23s12.48 18.24-5.85 33.49l.85-18.86V83.33c-1-.25-3-2.46-3-2.46s-1.91 2.21-3 2.46v13.86l.81 18.86C79.52 100.8 92 82.56 92 82.56s-7 4-7.71 17.24c-.23 13.06 11.64 19.48 11.64 19.48-1.08.54-4 1.46-9.25 1.46a18.65 18.65 0 0 0 11.25.62l2.06 2.71 2.06-2.71a18.65 18.65 0 0 0 11.25-.62c-5.24 0-8.17-.92-9.25-1.47.01 0 11.88-6.41 11.65-19.48z" class="cls-3" transform="translate(75)"/><path d="M100 80c2.87 3.24 7.8 0 6.11-3.52-3 5.33-6.11 1-6.11 1s-3.14 4.31-6.11-1C92.2 80 97.13 83.25 100 80z" class="cls-3" transform="translate(75)"/></g></g></g></g></svg>