<svg xmlns="http://www.w3.org/2000/svg" viewBox="0 0 394.94 394.93"><defs><style>.cls-1{fill:#f6f6f6;}.cls-2{fill:#e52a18;}.cls-3{fill:#24356b;}.cls-4{fill:#3a3938;}</style></defs><g id="Ebene_2" data-name="Ebene 2"><g id="Capa_1" data-name="Capa 1"><path class="cls-1" d="M5.83,150C32,44.17,139.06-20.37,244.9,5.83S415.3,139,389.11,244.89,255.89,415.3,150,389.1-20.38,255.88,5.83,150"/><path class="cls-2" d="M276.51,186.28A75,75,0,1,1,195,118.45a75,75,0,0,1,81.48,67.83"/><path class="cls-3" d="M137.71,154.35a37.45,37.45,0,1,0,64,38.83,37.43,37.43,0,0,1,64,38.8,74.88,74.88,0,1,1-128.07-77.63"/><path class="cls-4" d="M80.05,276.84l19.48,28.87,9.75-6.54L89.78,270.3ZM77,272.28l9.75-6.57-19.5-28.9-9.75,6.55ZM42.5,253.49l42.07,62.35,9.71-6.54L52.2,246.94Zm30-20.22,42.08,62.36,9.7-6.57-42-62.38ZM331.19,153,311.73,124,302,130.6l19.48,28.9Zm-22.58-33.48L289.16,90.55l-9.73,6.57L298.91,126Zm42.88,19.82,9.71-6.57-19.5-28.9L332,110.39ZM338.62,99.23l-19.5-28.89-9.73,6.57,19.5,28.89Zm7.57,43.62-42-62.38L294.41,87l42.08,62.36ZM309.39,309.3l9.73,6.54L338.62,287l-9.75-6.57ZM332,275.82l9.73,6.54,19.5-28.87-9.75-6.55Zm-18.08-5.52-19.48,28.87,9.71,6.59,19.5-28.9Zm32.3-26.92-9.7-6.57L317,265.71l9.7,6.57Zm-47.28,16.79-19.5,28.89,9.75,6.57,19.45-28.9Zm12.82,2,19.46-28.9-9.71-6.59L302,255.58ZM72.46,153l9.73,6.55,42.05-62.38-9.7-6.55Zm-5.27-3.56L109.28,87l-9.75-6.54L57.46,142.85ZM94.28,76.91l-9.71-6.57-42.1,62.38,9.73,6.57Z"/></g></g></svg>