<svg xmlns="http://www.w3.org/2000/svg" role="img" viewBox="96.00 -3.99 207.74 207.74"><defs><clipPath id="clip-path" transform="translate(100)"><circle cx="100" cy="100" r="100" fill="none"/></clipPath><style>.cls-6{fill:#fff}</style></defs><g id="Ebene_2" data-name="Ebene 2"><g id="ARTWORK"><g id="ROUND"><g clip-path="url(#clip-path)" id="FLAGS"><path fill="#00a452" d="M66.67-33.33h66.67v400H66.67z" transform="rotate(90 150 216.67)"/><path fill="#e0002a" d="M66.67-100h66.67v400H66.67z" transform="rotate(90 150 150)"/><path fill="#0098c4" d="M66.67-166.67h66.67v400H66.67z" transform="rotate(90 150 83.33)"/><path d="M243.42 100l-8.34-3.45 3.45-8.33-8.33 3.45-3.45-8.34-3.45 8.34-8.33-3.45 3.45 8.33-8.34 3.45 8.34 3.45-3.45 8.33 8.33-3.45 3.45 8.34 3.45-8.34 8.33 3.45-3.45-8.33 8.34-3.45z" class="cls-6"/><path d="M100 125a25 25 0 1 1 19.24-41 30.5 30.5 0 1 0 0 31.92A24.94 24.94 0 0 1 100 125z" class="cls-6" transform="translate(100)"/></g></g></g></g></svg>