<svg xmlns="http://www.w3.org/2000/svg" role="img" viewBox="46.01 -3.99 207.74 207.74"><defs><clipPath id="clip-path" transform="translate(50)"><circle cx="100" cy="100" r="100" fill="none"/></clipPath><style>.cls-4{fill:#fff}.cls-6{fill:#081084}</style></defs><g id="Ebene_2" data-name="Ebene 2"><g id="ARTWORK"><g id="ROUND"><g clip-path="url(#clip-path)" id="FLAGS"><path fill="#088004" d="M66.67 16.67h66.67v300H66.67z" transform="rotate(90 125 191.67)"/><path d="M66.67-50h66.67v300H66.67z" class="cls-4" transform="rotate(90 125 125)"/><path fill="#f48e20" d="M66.67-116.67h66.67v300H66.67z" transform="rotate(90 125 58.33)"/><path d="M131 100a31 31 0 1 0-31 31 31 31 0 0 0 31-31z" class="cls-6" transform="translate(50)"/><path d="M120.7 118.05a1.7 1.7 0 0 1 2.2-2.58 26.55 26.55 0 0 0 1.92-3.32l-.16-.08a1.7 1.7 0 0 1 1.47-3.06 27.77 27.77 0 0 0 1-3.66 1.7 1.7 0 0 1 .25-3.38h.19c0-.65.07-1.31.07-2s0-1.24-.06-1.85h-.2a1.7 1.7 0 0 1-.23-3.39 27.49 27.49 0 0 0-1-3.72l-.22.08a1.7 1.7 0 0 1-1.08-3.22 26.9 26.9 0 0 0-1.9-3.3 1.7 1.7 0 0 1-2.26-2.54 1.56 1.56 0 0 1 .2-.16 28 28 0 0 0-2.72-2.73 1.06 1.06 0 0 1-.17.2 1.68 1.68 0 0 1-2.4 0 1.71 1.71 0 0 1-.12-2.28 27.48 27.48 0 0 0-3.33-1.93l-.12.25a1.7 1.7 0 0 1-3-1.56 28.35 28.35 0 0 0-3.7-1 1.7 1.7 0 0 1-3.39-.15 1.36 1.36 0 0 1 0-.29c-.65 0-1.3-.07-2-.07s-1.27 0-1.9.06a1.53 1.53 0 0 1 0 .3 1.7 1.7 0 0 1-3.4.14 27.74 27.74 0 0 0-3.76 1 2 2 0 0 1 .11.29 1.7 1.7 0 0 1-3.24 1 27 27 0 0 0-3.3 1.91 1.7 1.7 0 0 1-2.5 2.3 2.11 2.11 0 0 1-.19-.23 28 28 0 0 0-2.72 2.73l.22.19a1.7 1.7 0 0 1-2.29 2.51 28.52 28.52 0 0 0-1.93 3.35 2.1 2.1 0 0 1 .26.13 1.69 1.69 0 0 1 .7 2.4 1.72 1.72 0 0 1-2.18.7 26.55 26.55 0 0 0-1 3.68 1.7 1.7 0 0 1-.17 3.4 1.09 1.09 0 0 1-.26 0q-.06.93-.06 1.86c0 .67 0 1.33.07 2h.25a1.7 1.7 0 0 1 .2 3.39 27 27 0 0 0 1 3.71l.23-.08a1.7 1.7 0 0 1 1.08 3.22 29.12 29.12 0 0 0 1.92 3.29 1.7 1.7 0 0 1 2.23 2.55l-.15.14a28.78 28.78 0 0 0 2.71 2.7l.13-.15a1.7 1.7 0 0 1 2.61 2.2 26.15 26.15 0 0 0 3.33 1.92 1.3 1.3 0 0 1 .08-.17 1.7 1.7 0 0 1 3.06 1.46 26.39 26.39 0 0 0 3.67 1 1.7 1.7 0 0 1 3.38.28v.16c.62 0 1.25.06 1.88.06s1.3 0 1.94-.06a.92.92 0 0 1 0-.16 1.7 1.7 0 0 1 3.38-.29 26.15 26.15 0 0 0 3.72-1 .88.88 0 0 1 0-.15 1.7 1.7 0 0 1 3.18-1.15 27.8 27.8 0 0 0 3.27-1.89 1.7 1.7 0 0 1 2.58-2.19l.11.12a27.63 27.63 0 0 0 2.71-2.7.69.69 0 0 1-.2-.19z" class="cls-4" transform="translate(50)"/><path d="M101.07 88.25l-1-15.87-1.14 15.87A72.7 72.7 0 0 1 100 100a75.54 75.54 0 0 1 1.07-11.75zM100 100a72.7 72.7 0 0 1-11.73-1.09L72.38 100l15.87 1a75.54 75.54 0 0 1 11.75-1zm0 0a75.63 75.63 0 0 1 9-7.55l10.48-12-12 10.45A72.78 72.78 0 0 1 100 100zm0 0a72.78 72.78 0 0 1-7.52-9.06l-12-10.45 10.48 12A75.63 75.63 0 0 1 100 100zm4.13-11l3.16-15.59-5.23 15A73.37 73.37 0 0 1 100 100a74.4 74.4 0 0 1 4.13-11zm6.92 15.13l15.59 3.16-15-5.23a73.16 73.16 0 0 1-11.6-2 75.54 75.54 0 0 1 11.73 1l15.87-1-15.87-1.09A72.7 72.7 0 0 1 100 100a73.48 73.48 0 0 1-11.62 2l-15 5.15 15.6-3.08A74.36 74.36 0 0 1 100 100a73.43 73.43 0 0 1-10.72 4.87L76 113.72l14.3-7A74.45 74.45 0 0 1 100 100a72.49 72.49 0 0 1-9 7.51l-10.45 12 12-10.48a75.33 75.33 0 0 1 7.54-9 71.74 71.74 0 0 1-6.8 9.58l-7 14.28 8.85-13.21a75.18 75.18 0 0 1 4.86-10.62 72.32 72.32 0 0 1-4.13 11l-3.12 15.6 5.19-15a74.92 74.92 0 0 1 2.06-11.58v.08a73.31 73.31 0 0 1-1.09 11.59l1.09 15.87 1-15.87a76.07 76.07 0 0 1-1-11.58 75.57 75.57 0 0 1 2 11.46l5.11 15.06-3-15.61a72.88 72.88 0 0 1-4-10.92v-.08a75.42 75.42 0 0 1 4.88 10.65l8.69 13.27-6.92-14.32a72.85 72.85 0 0 1-6.74-9.59 76.16 76.16 0 0 1 7.53 9l12 10.48-10.45-12a73.25 73.25 0 0 1-9-7.5 75.46 75.46 0 0 1 9.62 6.77l14.26 7-13.27-8.84a73.7 73.7 0 0 1-10.71-5 75.85 75.85 0 0 1 11.05 4.13zM100 100zm0 0zm0 0zm0 0zm0 0zm0 0zm0 .09v-.07.07zm0-.07zm0 0zm0 0zm0-.02a72.51 72.51 0 0 1-11-4.15l-15.6-3.12 15 5.19A75.28 75.28 0 0 1 100 100zm0 0a76 76 0 0 1 10.7-4.91l13.3-8.77-14.32 6.92A72.37 72.37 0 0 1 100 100zm0 0a72.92 72.92 0 0 1-4.9-10.73L86.28 76l7 14.3A75.28 75.28 0 0 1 100 100zm0 0a75.49 75.49 0 0 1 6.78-9.63l7-14.27L105 89.29a73.36 73.36 0 0 1-5 10.71zm0 0a73 73 0 0 1-9.61-6.81l-14.28-7 13.21 8.85A75.35 75.35 0 0 1 100 100zm0 0a75.38 75.38 0 0 1 11.6-2l15.06-5.11-15.61 3A72.84 72.84 0 0 1 100 100zm0 0a72.83 72.83 0 0 1-2-11.62l-5.15-15 3.08 15.6A75.06 75.06 0 0 1 100 100z" class="cls-6" transform="translate(50)"/></g></g></g></g></svg>