<svg xmlns="http://www.w3.org/2000/svg" viewBox="0 0 86.04 86.03"><defs><style>.cls-1{fill:#fff;}.cls-1,.cls-2,.cls-3{fill-rule:evenodd;}.cls-2{fill:#303e99;}.cls-3{fill:#bb1f33;}</style></defs><g id="Ebene_2" data-name="Ebene 2"><g id="_1" data-name="1"><path class="cls-1" d="M42.21,86h1.61a43,43,0,1,0-1.61,0Z"/><path class="cls-2" d="M42.21,86h1.61A43.08,43.08,0,0,0,83.6,28.67H2.46A43,43,0,0,0,42.21,86Z"/><path class="cls-3" d="M42.21,86h1.61A43.06,43.06,0,0,0,83.6,57.35H2.46A43,43,0,0,0,42.21,86Z"/><path class="cls-1" d="M6,65a9.14,9.14,0,0,0,2,.81,20.66,20.66,0,0,0,4.56-2.33A27.6,27.6,0,0,0,24.8,48.37c2.55-8.14,1.64-16.77,1-25.13-.1-1.16.08-3.15-1.62-3H6.54A43,43,0,0,0,6,65Z"/><path class="cls-3" d="M8,21.51v43c19.91-9.63,17.73-25.59,16.41-43ZM4.81,62.81a43.08,43.08,0,0,1,1-41.3H8v43C6.86,64,5.81,63.4,4.81,62.81Z"/><path class="cls-1" d="M10.31,33.3a31.67,31.67,0,0,1,6.28.8,7.67,7.67,0,0,1,0-5.22,32.42,32.42,0,0,1-6.28.8H5.66a23.62,23.62,0,0,1-3.45-.29A43.12,43.12,0,0,0,1,33.78a27.4,27.4,0,0,1,4.67-.48Z"/><path class="cls-1" d="M12.11,41.13a31.67,31.67,0,0,1,6.28.8,7.77,7.77,0,0,1,0-5.21,33.2,33.2,0,0,1-6.28.79H3.85a23.75,23.75,0,0,1-3.46-.29C.2,38.62.08,40,0,41.47a26.06,26.06,0,0,1,3.82-.34Z"/><path class="cls-1" d="M5.37,23.16a32.89,32.89,0,0,1,.79,6.24V56H9.81V29.4a32.89,32.89,0,0,1,.79-6.24,7.82,7.82,0,0,1-5.23,0Z"/><path class="cls-2" d="M2.37,57.16A4.24,4.24,0,0,0,4,53.82,4.26,4.26,0,0,0,.5,49.64a44.46,44.46,0,0,0,1.87,7.52Z"/><path class="cls-2" d="M8,47.07a5.41,5.41,0,1,0,5.44,5.41A5.43,5.43,0,0,0,8,47.07Z"/><path class="cls-2" d="M16.24,49.58a4.25,4.25,0,1,0,0,8.49,4,4,0,0,0,1.32-.22,25.3,25.3,0,0,0,2.91-3.51,4.36,4.36,0,0,0,.05-.52,4.26,4.26,0,0,0-4.28-4.24Z"/><path class="cls-2" d="M4.81,62.82c1,.59,2.05,1.16,3.17,1.7a31.15,31.15,0,0,0,11.81-9.25h-18a44,44,0,0,0,3,7.55Z"/></g></g></svg>