<svg xmlns="http://www.w3.org/2000/svg" viewBox="0 0 394.94 394.93"><defs><style>.cls-1{fill:#e52a18;}.cls-2{fill:#ffd300;}</style></defs><g id="Ebene_2" data-name="Ebene 2"><g id="Capa_1" data-name="Capa 1"><path class="cls-1" d="M5.83,150C32,44.17,139.07-20.37,244.9,5.83S415.3,139,389.11,244.89,255.89,415.3,150,389.1-20.38,255.88,5.83,150"/><path class="cls-2" d="M210,191.12l-9.23,11.16-13.44-5.38L195,209.14l-9.23,11.11,14-3.56,7.73,12.23.91-14.44,14-3.57L209,205.56Zm53.52-30.35H249L244.59,147l-4.49,13.77H225.65l11.68,8.49L232.84,183l11.72-8.5L256.24,183l-4.46-13.77Zm-23.56-53,2.2,14.29,6.63-12.89L263,111.51l-10.2-10.24,6.59-12.88L246.5,94.94,236.33,84.71,238.53,99l-12.88,6.53ZM210.07,41.57l-9.23,11.15-13.41-5.34,7.7,12.2-9.24,11.13,14-3.58,7.72,12.24.95-14.45,14-3.57L209.16,56Zm-100.93,63.6L95.57,63.4,82,105.17H38L73.58,131,60,172.81,95.57,147l35.52,25.84L117.52,131l35.55-25.84Z"/></g></g></svg>