<svg xmlns="http://www.w3.org/2000/svg" role="img" viewBox="12.35 -8.15 410.80 410.80"><defs><radialGradient id="b" cx="-3263.71" cy="2264.03" r="1" gradientTransform="matrix(197.47 0 0 -197.47 644694.76 447271.09)" gradientUnits="userSpaceOnUse"><stop offset="0" stop-color="#fff"/><stop offset=".78" stop-color="#fff"/><stop offset=".82" stop-color="#f9f8f8"/><stop offset=".88" stop-color="#e9e6e3"/><stop offset=".96" stop-color="#cfc8c2"/><stop offset="1" stop-color="#bfb6ad"/></radialGradient><clipPath id="a" transform="translate(20.38)"><path fill="none" d="M197.3 0C108.67 0 28.08 60.11 5.83 150-20.38 255.88 44.2 362.92 150 389.1s212.88-38.36 239.07-144.21S350.76 32 244.9 5.83A198 198 0 0 0 197.32 0"/></clipPath></defs><g data-name="Ebene 2"><g data-name="Capa 1"><g clip-path="url(#a)"><path fill="url(#b)" d="M0 0h435.68v415.3H0z"/></g><path fill="#24356b" d="M26.21 150C52.38 44.17 159.45-20.37 265.28 5.83S435.68 139 409.49 244.89 276.27 415.3 170.38 389.1 0 255.88 26.21 150"/><path fill="#f5f1ee" d="M357.9 58.27l-79.39 52.92V9.6c-4.33-1.39-8.74-2.66-13.23-3.77a196.44 196.44 0 0 0-108.61 3.92V111.2L77.59 58.49a196.19 196.19 0 0 0-42.82 65.08l20.94 14H29.76q-2 6.15-3.55 12.51a196.56 196.56 0 0 0 4.17 109.29h25.85l-20.72 13.81a198.49 198.49 0 0 0 43.46 64.63l77.7-51.81v99.13q6.75 2.2 13.75 3.94a196.48 196.48 0 0 0 108.09-3.75V286l78 52a196.24 196.24 0 0 0 43.57-64.56l-21.15-14.09h26.45c1.55-4.74 2.95-9.56 4.16-14.48a196.45 196.45 0 0 0-3.51-107.36h-26.56l21.35-14.23a198.28 198.28 0 0 0-42.92-65"/><path fill="#e52a18" d="M126.3 137.53L52.99 88.77a196.45 196.45 0 0 0-13.18 23.3l38.27 25.46zm256.08-49.14a196.75 196.75 0 0 0-16.26-21.27l-87.63 58.27v12.14h30zM53.54 306.9a196.53 196.53 0 0 0 16.3 21.22l86.83-57.75v-11h-31.65zm358.73-144H253.14V3.23a196.38 196.38 0 0 0-71.1 0V162.9H23.49a196.07 196.07 0 0 0 .3 71.1h158.25v157.6a196.23 196.23 0 0 0 71.1.15V234h158.73a196.55 196.55 0 0 0 .4-71.06m-102.05 96.43l71.84 47.77a196.23 196.23 0 0 0 13.32-23.22l-36.93-24.55z"/><path fill="#333a63" d="M278.51 30.15V43a23 23 0 0 0 1.19-6.89 14.56 14.56 0 0 0-1.19-5.92"/></g></g></svg>