<svg xmlns="http://www.w3.org/2000/svg" viewBox="0 0 394.94 394.93"><defs><style>.cls-1{fill:#ffd300;}.cls-2{fill:#221c10;}.cls-3{fill:#e6392e;}</style></defs><g id="Ebene_2" data-name="Ebene 2"><g id="Capa_1" data-name="Capa 1"><path class="cls-1" d="M5.83,150C32,44.17,139.07-20.37,244.9,5.83S415.3,139,389.11,244.89,255.89,415.3,150,389.1-20.38,255.88,5.83,150"/><path class="cls-2" d="M11.51,131.15H383.44A197.2,197.2,0,0,0,244.9,5.83C145.52-18.77,45.07,36.64,11.51,131.15"/><path class="cls-3" d="M390.67,238.05c.09-.42.18-.84.26-1.26.15-.73.3-1.47.44-2.2l.24-1.28c.14-.75.28-1.52.41-2.27.07-.39.13-.77.2-1.15q.24-1.42.45-2.85l.09-.56q.25-1.71.48-3.42l.12-.9c.1-.84.21-1.68.3-2.52,0-.39.09-.79.13-1.19.08-.75.16-1.5.23-2.25l.12-1.24c.07-.75.13-1.51.19-2.27l.09-1.15c.06-.87.12-1.74.17-2.61,0-.26,0-.53.05-.79.06-1.14.11-2.28.16-3.42,0-.18,0-.37,0-.55,0-.95.06-1.89.08-2.83,0-.36,0-.72,0-1.08,0-.77,0-1.55,0-2.33v-1.17c0-.76,0-1.52,0-2.28,0-.38,0-.75,0-1.13,0-.83,0-1.67-.07-2.5,0-.29,0-.57,0-.86-.09-2.26-.21-4.52-.37-6.76,0-.3-.05-.59-.07-.89-.07-.82-.13-1.64-.21-2.46,0-.36-.06-.72-.1-1.07-.07-.78-.15-1.55-.23-2.33l-.12-1c-.09-.83-.19-1.65-.29-2.46,0-.29-.07-.58-.11-.87q-.44-3.34-1-6.68c0-.2-.07-.4-.11-.6-.15-.9-.3-1.79-.46-2.69l-.18-.91c-.15-.81-.3-1.61-.46-2.41-.06-.31-.13-.63-.19-.95-.17-.82-.35-1.64-.53-2.45-.06-.27-.11-.55-.17-.82-.23-1-.46-2-.7-3l0-.22c-.25-1.05-.51-2.09-.78-3.13h0q-2.25-8.69-5.25-17.09H11.51Q8.24,140.35,5.83,150a196.89,196.89,0,0,0-3.38,78.41l.06.34c.14.92.3,1.84.46,2.77,0,.19.07.39.11.58.15.87.31,1.73.48,2.59l.15.77c.16.81.32,1.62.49,2.43.07.31.13.62.2.92q.24,1.16.51,2.31c.08.35.16.71.25,1.07.16.72.33,1.43.51,2.15.13.54.27,1.08.41,1.62q.3,1.22.63,2.43c.21.8.43,1.59.65,2.39l.3,1c.22.76.44,1.51.67,2.26.1.35.21.71.32,1.06.23.75.46,1.49.7,2.24l.33,1c.25.75.49,1.5.75,2.24.11.34.23.68.34,1l.79,2.25c.07.18.13.35.19.53h0c.17.46.33.93.51,1.39H382.67c.17-.46.32-.93.49-1.39h0c.41-1.16.81-2.32,1.2-3.49l.12-.34q.76-2.29,1.49-4.6c.06-.22.13-.43.2-.65.44-1.44.86-2.89,1.27-4.35l.27-.92q.72-2.59,1.37-5.24c.29-1.13.55-2.27.81-3.41.09-.36.17-.73.25-1.09.17-.78.34-1.56.5-2.34"/></g></g></svg>