<svg xmlns="http://www.w3.org/2000/svg" viewBox="0 0 394.94 394.93"><defs><style>.cls-1{fill:#f6f6f6;}.cls-2{fill:#0097d5;}</style></defs><g id="Ebene_2" data-name="Ebene 2"><g id="Capa_1" data-name="Capa 1"><path class="cls-1" d="M5.83,150C32,44.17,139.07-20.37,244.9,5.83S415.3,139,389.11,244.89,255.89,415.3,150,389.1-20.38,255.88,5.83,150"/><path class="cls-2" d="M272.24,168.52,258,144h28.35ZM258,246.08l14.2-24.51,14.15,24.51Zm-30.62,0h-59.9l-29.48-51L167.52,144h59.9l29.48,51.1ZM197.47,298l-14.66-25.39h29.32ZM122.7,168.46,108.55,144h28.34Zm-14.15,77.62,14.15-24.51,14.19,24.51Zm88.92-154,14.66,25.39H182.81ZM287.53,195l44.76-77.51H242.76L197.47,39l-45.29,78.45H62.6l11.5,19.84,33.32,57.73L62.6,272.61h89.58l45.29,78.45,45.29-78.45h89.58Z"/></g></g></svg>