<svg xmlns="http://www.w3.org/2000/svg" viewBox="0 0 394.94 394.93"><defs><style>.cls-1{fill:#0069b4;}.cls-2{fill:#e52a18;}.cls-3{fill:#f6f6f6;}</style></defs><g id="Ebene_2" data-name="Ebene 2"><g id="Capa_1" data-name="Capa 1"><path class="cls-1" d="M5.83,150C32,44.17,139.06-20.36,244.9,5.83S415.3,139,389.11,244.89,255.89,415.3,150,389.1-20.38,255.88,5.83,150"/><path class="cls-2" d="M11.51,131.15H383.44A197.22,197.22,0,0,0,244.9,5.83C145.52-18.77,45.07,36.64,11.51,131.15"/><path class="cls-3" d="M390.67,238.05c.09-.42.18-.84.26-1.26.15-.73.3-1.46.44-2.2l.24-1.27c.14-.76.28-1.52.41-2.28.07-.39.13-.77.2-1.15q.24-1.42.45-2.85l.09-.56q.25-1.71.48-3.42l.12-.9.3-2.51c0-.4.09-.8.13-1.2.08-.75.16-1.5.23-2.25l.12-1.24c.06-.75.13-1.51.19-2.27l.09-1.15c.06-.87.11-1.74.17-2.61,0-.26,0-.52.05-.79.06-1.14.11-2.28.16-3.42,0-.18,0-.37,0-.55,0-.94.06-1.89.08-2.83,0-.36,0-.72,0-1.08,0-.77,0-1.55,0-2.33v-1.17c0-.76,0-1.52,0-2.28,0-.38,0-.75,0-1.13,0-.83,0-1.67-.07-2.5,0-.29,0-.57,0-.86-.09-2.26-.21-4.51-.38-6.76l-.06-.89-.21-2.46c0-.36-.06-.72-.1-1.07-.07-.78-.15-1.55-.23-2.32l-.12-1.06c-.09-.83-.19-1.64-.29-2.46,0-.29-.07-.58-.11-.86q-.44-3.36-1-6.69c0-.2-.07-.4-.11-.6-.15-.9-.3-1.79-.47-2.69-.05-.3-.11-.61-.17-.91-.15-.81-.3-1.61-.46-2.41-.07-.31-.13-.63-.2-.95-.16-.82-.34-1.63-.52-2.45-.06-.27-.11-.55-.18-.82q-.33-1.5-.69-3l0-.22c-.25-1.05-.51-2.09-.78-3.13h0c-1.49-5.78-3.24-11.49-5.24-17.09H11.51Q8.24,140.36,5.83,150a196.7,196.7,0,0,0-3.38,78.41l.06.33c.14.93.3,1.86.46,2.78,0,.19.07.39.11.58.15.87.31,1.73.48,2.59l.15.77c.16.81.32,1.62.49,2.43.06.31.13.61.2.92q.24,1.16.51,2.31c.08.35.16.71.25,1.07.16.72.33,1.43.5,2.15L6.08,246q.3,1.22.63,2.43c.21.8.43,1.59.65,2.39.1.35.2.7.31,1.05.21.75.43,1.5.65,2.25l.33,1.06c.23.75.46,1.49.7,2.24l.33,1c.25.75.49,1.5.75,2.24.11.34.22.68.34,1,.26.75.52,1.5.79,2.25.06.18.13.35.19.53h0l.51,1.39H382.67c.17-.46.32-.93.49-1.39h0c.41-1.16.8-2.32,1.2-3.49l.12-.34q.76-2.29,1.48-4.6l.21-.65c.44-1.44.86-2.89,1.27-4.35l.27-.92q.72-2.59,1.37-5.24c.28-1.13.55-2.27.81-3.41.09-.36.16-.73.25-1.09.17-.78.34-1.56.5-2.34"/></g></g></svg>